<?xml version="1.0" encoding="UTF-8"?>
<svg id="Layer_1" data-name="Layer 1" xmlns="http://www.w3.org/2000/svg" width="32" height="32" viewBox="0 0 32 32">
  <defs>
    <style>
      .cls-1 {
        stroke: #7e6e2b;
      }

      .cls-1, .cls-2 {
        fill: none;
        stroke-width: 2px;
      }

      .cls-3 {
        fill: #7c8176;
      }

      .cls-2 {
        stroke: #3e413b;
      }

      .cls-4 {
        fill: #fcdb55;
      }
    </style>
  </defs>
  <g>
    <path class="cls-1" d="m13.68,5.7c4.57-.93,9.27,1,11.87,4.89,2.14,3.21,2.53,7.28,1.01,10.85-.04.09-.03.17.07.19.8.16,1.47.67,1.71,1.45.07.24.06.42.37.41.14,0,.27,0,.41,0,.14,0,.21-.04.27-.16,1.22-2.61,1.67-5.34,1.33-8.2-.79-6.7-6.18-12.07-12.89-12.9-.75-.09-1.47-.13-2.14-.12-5.39.11-10.33,3.16-12.84,7.95-2.17,4.15-2.26,9.15-.2,13.37.03.06.07.09.14.09h.93c.06,0,.09-.03.1-.08.12-.75.52-1.28,1.19-1.6.14-.07.27-.12.4-.18.06-.03.08-.07.06-.13-.12-.29-.23-.58-.33-.87-.47-1.33-.66-2.72-.61-4.14.2-5.27,3.98-9.76,9.15-10.81" vector-effect="non-scaling-stroke"/>
    <path class="cls-1" d="m8.36,9.04c-3.33,3.26-4.27,8.23-2.28,12.47.02.04.05.06.1.06.28,0,.55.04.81.13.02,0,.02,0,.01-.01-2.32-4.36-1.23-9.69,2.63-12.78,2.25-1.8,5.22-2.57,8.08-2.07,6.83,1.2,10.49,8.72,7.22,14.85,0,.01,0,.02.01.02.28-.07.56-.11.86-.13,0,0,.02,0,.02-.01,1.44-3.02,1.4-6.49-.04-9.48-1.75-3.63-5.5-6.05-9.54-6.13-2.94-.06-5.78,1.04-7.89,3.09" vector-effect="non-scaling-stroke"/>
    <path class="cls-1" d="m10.29,18.01s.02,0,0,.01c-1.22.55-2.43,1.1-3.64,1.65-.05.02-.09.05-.12.07,0,0-.01.02-.01.03,0,.02.02.03.04.01.83-.36,2.18-.94,4.02-1.74.05-.02.1-.03.15-.03.75,0,1.49,0,2.23,0,.01,0,.01,0,0,.01l-1.59,1.6s-.04.03-.06.04c-1.37.54-2.74,1.08-4.09,1.62-.03.01-.07.04-.02.06,0,0,.02,0,.03,0l3.84-1.45s.03,0,0,.01l-2.83,2.88s-.01.02-.01.03c0,.02,0,.03.02.03,0,0,.02,0,.03,0,1.03-1,2.05-2.01,3.07-3.02.04-.04.08-.06.13-.08.56-.22,1.12-.44,1.69-.65,0,0,.01,0,.01,0,0,0,0,0,0,0,0,.52,0,1.05,0,1.57,0,.18-.12.43-.19.58-.02.04-.04.08-.08.11l-2.71,2.76s0,.01,0,.02c0,.05.17-.09.19-.1.82-.8,1.64-1.6,2.45-2.4.02-.02.02-.02.01,0-.35.94-.71,1.88-1.06,2.82-.02.04,0,.08.03.1,0,0,.02,0,.02-.01.41-1.04.82-2.07,1.23-3.11.03-.07.08-.13.14-.19,0,0,.01,0,.02,0,0,0,0,0,0,0,.14.27.28.38.6.39.3,0,.6,0,.9,0,0,0,.02,0,.02.01h0c0,.14.03.33-.03.46-.41.93-.81,1.87-1.21,2.8-.01.03,0,.07.04.06.03,0,.05-.03.06-.05l1.14-2.52s0,0,0,0c.03.48.01.97.02,1.45,0,.01,0,.02.01.02l.08.03s.01,0,.02,0c0,0,0,0,0,0,0-.58,0-1.15.01-1.73,0-.15.12-.36.19-.51,0,0,.01-.01.02-.01h1.78s.02,0,.02.01c.06.14.19.35.19.49,0,.44,0,.88.01,1.32,0,0,0,.02.01.02h.08s.02,0,.02-.01c0,0,0,0,0,0v-1.07s.02-.03.03,0l.48,1.07s.01.02.02.02c.03,0,.07,0,.1,0,0,0,.01-.01,0-.02,0,0,0,0,0,0-.19-.45-.38-.89-.58-1.34-.06-.14-.04-.33-.03-.47,0,0,0-.02.02-.01.26,0,.53,0,.79,0,.34,0,.56-.07.69-.39,0,0,0,0,.02,0,0,0,0,0,0,0,.13.1.16.2.23.38.38.97.77,1.94,1.15,2.91,0,0,.01.02.02.02.02,0,.04,0,.05-.03,0,0,0-.02,0-.03l-1.07-2.84s0-.04.02-.01c.68.67,1.36,1.34,2.05,2.01.1.1.15.16.27.17.02,0,.02,0,0-.02-.8-.81-1.6-1.62-2.4-2.44-.14-.14-.29-.54-.29-.74,0-.52,0-1.04,0-1.55,0,0,0-.01.01-.01,0,0,0,0,0,0l1.71.65s.04.02.06.04l3.07,3.02s.02.01.03,0c.02,0,.02-.02.02-.04,0,0,0-.02-.01-.03l-2.79-2.84s-.02-.02,0-.01c1.29.48,2.55.96,3.81,1.43.07.03.13-.02.04-.06-1.34-.54-2.69-1.07-4.04-1.6-.05-.02-.09-.05-.13-.08-.53-.53-1.04-1.05-1.55-1.56-.02-.02-.02-.03.01-.03.74,0,1.47,0,2.18,0,.05,0,.1,0,.15.03,1.25.54,2.51,1.08,3.76,1.63.04.02.15.06.32.13,0,0,.01.01,0,.02-.22.7-.52,1.37-.89,2,0,0,0,.01,0,.01.06,0,.11-.04.15-.1,3.09-5.55.39-12.5-5.66-14.46-4.91-1.59-10.26.83-12.29,5.57-1.25,2.91-1.07,6.16.47,8.92.04.07.1.11.17.13,0,0,.01,0,0,0-.71-1.2-1.15-2.5-1.32-3.89,0,0,0-.01.01-.02,0,0,0,0,0,0,1.32.01,2.64.02,3.95.03.08,0,.15,0,.21.01" vector-effect="non-scaling-stroke"/>
    <path class="cls-1" d="m4.64,22.58c-.88.95-.37,2.46.86,2.78.07.02.12.04.14.05.1.08.11.27.11.39,0,1.14,0,2.28,0,3.42,0,.11-.02.31,0,.46.01.07.05.1.12.1.09,0,.17.02.22.09.02.03.03.02.03,0,0-1.26,0-2.52,0-3.79,0-.19-.06-.62.22-.65.59-.07,1.04-.35,1.34-.82.35-.54.37-1.22.03-1.77-.67-1.08-2.24-1.16-3.07-.27" vector-effect="non-scaling-stroke"/>
    <path class="cls-1" d="m24.32,23.41c-.16.9.49,1.81,1.38,1.97.01,0,.02,0,.03.01.19.17.12.59.12.82,0,1.1,0,2.21,0,3.31,0,.14-.02.24.14.26.12.01.19-.04.19-.15,0-1.27,0-2.54,0-3.81,0-.13.02-.37.19-.39.86-.08,1.59-.7,1.67-1.58.11-1.28-1.17-2.11-2.33-1.84-.69.16-1.27.7-1.4,1.4" vector-effect="non-scaling-stroke"/>
    <path class="cls-1" d="m12.04,27.99c.13.04.3.08.53.1.1.01.16.05.16.15,0,.46,0,.93,0,1.39,0,.16.17.15.27.13.07,0,.1-.04.1-.11v-1.45c.01-.06.04-.09.1-.1l.61-.09c.07-.01.1-.05.1-.12,0-.15-.04-.26-.11-.43-.05-.12-.09-.26-.12-.42-.12-.75-.35-2.1-.7-4.07,0-.03-.02-.05-.03-.06,0,0-.01,0-.01,0,0,0,0,0,0,0-.21,1.15-.41,2.29-.6,3.44-.09.56-.26,1.07-.35,1.49-.01.07,0,.12.05.13" vector-effect="non-scaling-stroke"/>
    <path class="cls-1" d="m19.24,24.19c0-.08-.07-.15-.15-.15h-2.33c-.08,0-.15.07-.15.15h0v5.43c0,.08.07.15.15.15h2.33c.08,0,.15-.07.15-.15v-5.43" vector-effect="non-scaling-stroke"/>
    <path class="cls-1" d="m2.67,29.74s.05.02.08.02h2.37c.06,0,.09-.03.09-.09v-1.36s0-.01,0-.03c0,0,0-.01,0-.02,0-.95,0-1.67,0-2.17,0-.15.01-.25-.13-.3-.36-.13-.75-.35-.97-.65-.18-.24-.24-.49-.29-.79-.01-.09-.04-.15-.14-.15-.1,0-.4,0-.88,0-.11,0-.19.03-.19.15,0,1.76,0,3.53,0,5.29,0,.05.01.08.04.09" vector-effect="non-scaling-stroke"/>
    <path class="cls-1" d="m9.18,24.26s-.05-.04-.09-.04h-.69c-.05,0-.08.03-.09.08-.02.1-.03.21-.04.3-.16.79-.82,1.13-1.54,1.28-.13.03-.16.11-.16.24,0,1.13,0,2.27,0,3.4,0,.23.14.2.33.2.71,0,1.42,0,2.13,0,.11,0,.17-.06.17-.18,0-1.71,0-3.41,0-5.11,0-.04,0-.12-.03-.15" vector-effect="non-scaling-stroke"/>
    <path class="cls-1" d="m26.85,29.69s.08.02.14.02c.74,0,1.49,0,2.23,0,.05,0,.1-.02.13-.06,0,0,.01-.02.01-.03.03-.22.01-.48.01-.66v-4.58c0-.07-.03-.16-.11-.16-.26,0-.51,0-.77,0-.06,0-.09.03-.1.09-.05.95-.69,1.32-1.51,1.55-.09.03-.13.1-.13.19,0,1.17,0,2.34,0,3.51,0,.06.03.1.09.12" vector-effect="non-scaling-stroke"/>
    <path class="cls-1" d="m22.76,29.74s.04.03.06.03c.71,0,1.42-.02,2.13,0,.15,0,.24,0,.29-.01.07-.02.1-.07.1-.16,0-1.2,0-2.4,0-3.6,0-.06-.03-.16-.08-.18-.73-.33-1.17-.52-1.34-1.42-.02-.09-.05-.15-.15-.15-.31,0-.59,0-.83,0-.14,0-.24.02-.24.18.01,1.55.01,3.22,0,5.01,0,.13,0,.21.06.29" vector-effect="non-scaling-stroke"/>
    <path class="cls-1" d="m9.79,29.73s.05.03.08.03c.74,0,1.48,0,2.21,0,.09,0,.13-.04.13-.12,0-.31,0-.62,0-.93,0-.16.06-.35-.17-.36-.11,0-.2-.02-.28-.05-.05-.02-.07-.06-.06-.11.14-.82.28-1.63.42-2.44.02-.14.01-.19-.09-.29-.32-.32-.65-.64-.98-.97-.03-.03-.07-.04-.11-.02-.02.01-.05.03-.08.07-.28.28-.56.56-.84.83-.18.17-.25.21-.25.49,0,1.26,0,2.52,0,3.77,0,.04,0,.07.03.09" vector-effect="non-scaling-stroke"/>
    <path class="cls-1" d="m20.91,24.49c-.35.34-.71.68-1.06,1.04-.08.08-.1.15-.1.26.01,1.27.01,2.54,0,3.81,0,.13.07.15.19.15.71,0,1.42,0,2.13,0,.1,0,.15-.05.15-.15,0-1.28,0-2.56,0-3.85,0-.09-.02-.15-.05-.18-.37-.36-.74-.73-1.11-1.09-.04-.04-.09-.04-.13,0" vector-effect="non-scaling-stroke"/>
    <path class="cls-1" d="m13.72,29.74s.05.02.08.02c.72,0,1.44,0,2.17,0,.09,0,.14-.04.14-.13,0-1.28,0-2.56,0-3.84,0-.08-.02-.19-.07-.24-.34-.33-.68-.67-1.01-1-.09-.09-.18-.09-.26,0-.1.1-.41.41-.93.93-.05.05-.07.1-.06.14.14.86.29,1.73.45,2.6,0,.06-.01.09-.07.1-.1.02-.21.03-.32.05-.11.01-.17.08-.16.19.01.35.01.7,0,1.05,0,.06,0,.11.06.14" vector-effect="non-scaling-stroke"/>
    <path class="cls-1" d="m14.91,3.11c-.57.11-.68.71-.58,1.18.14.6.72.83,1.25.57.63-.31.56-1.5-.1-1.75-.17-.06-.39-.04-.58,0" vector-effect="non-scaling-stroke"/>
    <path class="cls-1" d="m16.45,3.14s-.01.03-.01.04l-.14,1.58c0,.07.02.1.09.11.21.03.42.05.64.06.38.02.64-.14.77-.5.17-.45.13-1.13-.43-1.26-.19-.05-.55-.06-.8-.08-.05,0-.09,0-.12.04" vector-effect="non-scaling-stroke"/>
    <path class="cls-1" d="m13.26,3.35c-.47-.03-.92.24-.96.73-.04.43.16,1.01.62,1.14.43.12,1.02-.11,1.11-.6.09-.52-.15-1.23-.76-1.27" vector-effect="non-scaling-stroke"/>
    <path class="cls-1" d="m19.21,3.49s-.05.05-.05.07c-.14.47-.28.94-.41,1.41-.03.1-.08.2.06.25.15.05.41.12.76.21.19.04.35.05.49-.07.24-.21.27-.45.11-.73-.01-.02,0-.04.01-.05,0,0,0,0,0,0,.29-.11.29-.55.1-.72-.06-.05-.19-.11-.4-.18-.21-.06-.41-.13-.63-.19-.02,0-.04,0-.05.01" vector-effect="non-scaling-stroke"/>
    <path class="cls-1" d="m11.35,3.92s-.02.04-.01.06l.18.48s0,.08-.05.11c-.16.07-.32.14-.49.19-.04.01-.07,0-.09-.04l-.21-.48s-.06-.07-.11-.05c-.11.03-.28.06-.22.21.19.49.38.98.57,1.48.02.04.04.06.09.06.52,0-.03-.64.11-.85.07-.1.35-.19.46-.22.06-.01.1,0,.13.07l.21.54s.05.06.09.06c.07,0,.14-.04.21-.07.07-.04.06-.11.04-.18-.19-.48-.38-.96-.55-1.43-.02-.04-.04-.06-.09-.06-.11,0-.19.05-.26.12" vector-effect="non-scaling-stroke"/>
    <path class="cls-1" d="m20.94,4.17s-.04.06-.05.09c-.16.39-.32.78-.48,1.17-.03.09-.05.15-.05.19.01.14.17.22.29.17,0,0,.02-.01.02-.02l.61-1.5c.02-.05,0-.09-.03-.13-.13-.11-.23-.1-.32.02" vector-effect="non-scaling-stroke"/>
    <path class="cls-1" d="m21.81,5.14l.26-.5s.02-.09-.01-.12c-.06-.07-.25-.18-.32-.06-.24.46-.48.92-.72,1.38-.03.05-.02.09.01.14.09.12.27.15.35-.02.07-.15.14-.39.34-.41.07,0,.1.02.11.09.02.19.04.39.07.6.04.23.16.38.41.39.01,0,.03-.01.03-.03,0,0,0,0,0,0-.04-.35-.09-.71-.15-1.06-.01-.08.05-.16.13-.18.26-.09.51-.17.77-.25.02,0,.02-.01,0-.03-.15-.14-.37-.25-.58-.16-.26.11-.49.19-.7.24-.01,0-.01,0,0-.01" vector-effect="non-scaling-stroke"/>
    <path class="cls-1" d="m10.1,5.43c0-.08.02-.17.02-.24-.01-.28-.25-.5-.53-.48-.06,0-.15.03-.25.08-.24.12-.47.24-.7.38-.04.02-.05.06-.04.1.01.03.03.07.05.11.24.43.49.86.73,1.31.02.04.06.06.11.05.05-.01.12-.05.19-.1.04-.03.05-.07.03-.12l-.25-.44s-.02-.08,0-.11c.17-.24.49-.26.66-.01.05.08.11.16.16.23.03.05.07.06.12.03l.28-.15s0-.01,0-.02c0,0,0,0,0,0-.25-.18-.27-.5-.58-.61,0,0-.01-.01-.01-.02" vector-effect="non-scaling-stroke"/>
    <path class="cls-1" d="m23.03,6.68c.04-.09.1-.17.19-.26.02-.02.06-.03.08,0l.57.39s.08.03.12,0c.13-.11.12-.21-.02-.3-.15-.1-.31-.21-.47-.33-.05-.03-.05-.08-.02-.12l.15-.2s.01,0,.02,0c.05.02.11.06.17.1.18.13.36.25.53.38.02.01.05.01.06,0,.06-.06.1-.11.13-.17.02-.04.01-.07-.02-.09-.28-.2-.54-.39-.79-.57-.03-.02-.11-.09-.16-.1-.05,0-.08,0-.11.04-.3.41-.58.81-.87,1.2-.03.04-.05.07-.06.1-.02.05-.01.09.03.12.3.22.6.44.91.65.11.08.22-.05.25-.14.01-.04,0-.08-.04-.1l-.63-.46s-.05-.07-.03-.11" vector-effect="non-scaling-stroke"/>
    <path class="cls-1" d="m7.27,6.12c-.45.58.03,1.36.67,1.52.43.11.9-.27,1-.68.1-.44-.3-.96-.67-1.12-.34-.15-.76,0-.99.29" vector-effect="non-scaling-stroke"/>
    <path class="cls-1" d="m25.86,8.08c-.02.06-.09.15-.12.19-.17.24-.35.47-.53.71-.1.13.03.25.12.33.04.03.08.04.12.02l1.5-.75c.06-.03.07-.07.03-.13-.1-.15-.24-.18-.4-.09-.09.05-.84.5-.87.47,0,0,0-.02,0-.02l.63-.86s.04-.1.02-.16c-.05-.12-.2-.24-.34-.16-.31.18-.6.35-.85.51-.09.05-.11.04-.04-.05.2-.28.39-.55.57-.81.11-.16-.03-.36-.2-.38,0,0-.02,0-.02.01l-.87,1.4c-.03.05-.04.11-.02.17.04.12.16.22.3.14.3-.18.62-.36.95-.56.03-.02.04-.01.03.03" vector-effect="non-scaling-stroke"/>
    <path class="cls-1" d="m7.42,7.78c-.11-.13-.27-.2-.44-.2-.04,0-.07-.02-.08-.06-.04-.14-.09-.28-.22-.35-.31-.16-.49-.03-.72.21-.16.16-.31.32-.46.49-.04.04-.04.08,0,.12l1.17,1.12s.08.04.13,0c.16-.16.32-.33.47-.49.22-.24.38-.55.15-.82" vector-effect="non-scaling-stroke"/>
    <path class="cls-1" d="m5.07,9.55s-.08.05-.12.02l-.46-.32s-.02,0-.03,0c-.09.07-.15.16-.19.25,0,.02,0,.04.02.05.43.31.85.61,1.26.89.09.06.16.13.24.01.04-.05.07-.1.09-.13.03-.04.02-.08-.02-.11l-.5-.37c-.05-.04-.06-.08-.02-.14l.27-.39c.04-.05.08-.06.13-.03.15.1.31.21.47.33.06.05.12.04.18-.01.11-.12.17-.22,0-.33-.16-.11-.54-.38-1.16-.82-.17-.12-.27,0-.32.15-.02.05,0,.09.04.12.11.08.22.16.33.25.11.1.05.18-.02.29-.07.1-.13.2-.19.28" vector-effect="non-scaling-stroke"/>
    <path class="cls-1" d="m26.04,10.29c.09.35.38.66.75.68.28.02.59-.12.81-.31.32-.28.41-.65.2-1.05-.5-.96-1.99-.24-1.76.68" vector-effect="non-scaling-stroke"/>
    <path class="cls-1" d="m3.81,11.76c.61.53,1.62.21,1.47-.71,0-.02.01-.04.03-.05,0,0,0,0,.01,0,.13.02.2-.03.19-.17,0-.02-.01-.04-.03-.05l-.71-.36s-.09-.01-.11.04l-.28.56s0,.02,0,.03c.06.07.14.1.23.1,0,0,.02,0,.02-.01l.13-.23s.06-.05.09-.02c.34.29,0,.85-.39.78-.28-.05-.63-.27-.69-.56-.05-.24.13-.47.38-.52.07-.01.12-.03.15-.06.07-.06.17-.29,0-.3-.38-.01-.63.16-.78.51-.16.38-.07.73.27,1.03" vector-effect="non-scaling-stroke"/>
    <path class="cls-1" d="m27.53,11.58c.16.16.29.43.05.6-.23.16-.53.18-.28.56.03.04.06.04.09.01.06-.05.1-.1.17-.13.17-.07.37-.11.41-.33,0-.04.03-.06.08-.04.43.19.87-.15.71-.61-.1-.28-.21-.55-.35-.81-.02-.04-.05-.05-.1-.03-.47.21-.94.41-1.4.61-.05.02-.09.05-.12.08-.02.02-.03.05-.02.07l.08.18c.02.05.06.07.12.04l.49-.21s.04,0,.06.01" vector-effect="non-scaling-stroke"/>
    <path class="cls-1" d="m3.01,12.24l1.34.52s.1.03.15.03c.2.02.33-.25.1-.33-.48-.18-.96-.37-1.43-.55-.06-.02-.1,0-.13.04-.05.08-.07.16-.07.24,0,.02.01.04.03.05" vector-effect="non-scaling-stroke"/>
    <path class="cls-1" d="m28.58,13.16s-.01-.01,0-.02l.6-.18s.06-.05.05-.09l-.06-.2s-.05-.06-.09-.05l-1.54.43c-.06.02-.09.05-.09.11,0,.11.1.29.24.25.19-.06.49-.22.6.03,0,0,0,.02,0,.03-.14.18-.29.36-.44.54-.14.17-.09.37,0,.53.01.02.03.02.05.01,0,0,0,0,0,0,.23-.27.45-.54.66-.82.07-.09.14-.1.23-.05.23.14.47.26.71.38.02.01.03,0,.03-.02-.04-.25-.09-.4-.32-.52-.21-.11-.42-.22-.63-.34" vector-effect="non-scaling-stroke"/>
    <path class="cls-1" d="m2.51,13.89s.03.03.05.03c.47.13.94.26,1.42.4.09.02.19.03.22-.07.1-.37.2-.73.29-1.08.01-.05,0-.09-.05-.12-.06-.03-.12-.05-.18-.04-.04,0-.06.02-.08.06-.07.23-.13.47-.19.7-.02.08-.06.14-.15.12-.11-.02-.34-.04-.3-.2.05-.21.11-.42.17-.62,0-.03,0-.06-.02-.08-.08-.07-.17-.08-.25-.03,0,0-.01.01-.02.02l-.17.61c-.02.06-.06.09-.12.1-.09,0-.3-.04-.26-.18.05-.19.1-.37.16-.56.05-.16.03-.27-.17-.28-.06,0-.09.02-.11.08-.08.3-.17.6-.25.91-.03.1-.06.15.02.24" vector-effect="non-scaling-stroke"/>
    <path class="cls-1" d="m3.42,14.94s-.07.06-.13.09c-.35.14-.69.28-1.02.42-.07.03-.1.07-.1.13v.23s.01.05.04.06c.51.08,1.02.15,1.53.2.17.02.23-.11.2-.25,0-.03-.03-.05-.06-.06-.35-.08-.71-.09-1.06-.16-.01,0-.02,0-.02-.02,0-.02,0-.03.03-.04.39-.16.77-.32,1.16-.47.04-.02.07-.05.09-.09.03-.09.03-.19,0-.29,0,0,0-.02-.02-.02-.08-.02-.19-.03-.25-.03-.7-.09-1.12-.15-1.26-.17-.17-.03-.26.04-.26.2,0,.1.05.12.14.13.16.02.49.06.98.14.01,0,.01,0,0,.01" vector-effect="non-scaling-stroke"/>
    <path class="cls-1" d="m28.12,15.93c.18.13.37.16.58.1.34-.1.29-.67.34-.94.09-.46.57-.07.38.31-.05.1-.18.15-.18.28,0,.08.03.16.09.22,0,0,.02,0,.03,0,.65-.19.51-1.34-.14-1.38-.55-.04-.52.65-.58.99-.04.22-.26.29-.37.08-.07-.14-.14-.33-.03-.47.12-.16.31-.26.13-.48-.01-.02-.04-.02-.06-.02-.52.17-.49.82-.27,1.21.02.04.05.07.09.1" vector-effect="non-scaling-stroke"/>
    <path class="cls-1" d="m15.48,3.53c-.24-.25-.68-.17-.77.19-.06.26-.06.6.13.79.15.15.46.19.64.02.23-.22.21-.77,0-.99" vector-effect="non-scaling-stroke"/>
    <path class="cls-1" d="m16.78,3.5s-.01.03-.02.05l-.08.99s.02.06.05.06c.23.04.51.08.65-.16.07-.13.11-.24.12-.33,0-.29.04-.57-.31-.65-.11-.03-.35-.07-.42.04" vector-effect="non-scaling-stroke"/>
    <path class="cls-1" d="m12.76,3.86c-.19.26-.07.82.2.99.19.13.44.08.59-.09.26-.29.08-.99-.31-1.09-.16-.04-.38.04-.48.18" vector-effect="non-scaling-stroke"/>
    <path class="cls-1" d="m19.44,3.92l-.09.24s0,.05.03.06c.13.08.48.22.62.11.06-.05.08-.11.07-.19,0-.06-.04-.1-.1-.12-.15-.06-.3-.1-.45-.14-.04,0-.06,0-.08.04" vector-effect="non-scaling-stroke"/>
    <path class="cls-1" d="m19.25,4.58c-.04.08-.13.27-.1.35.04.13.36.17.49.19.27.02.37-.33.09-.44-.13-.05-.27-.1-.41-.13-.03,0-.06,0-.07.03" vector-effect="non-scaling-stroke"/>
    <path class="cls-1" d="m9.12,5.29s-.05.08-.03.13c.04.11.09.19.16.26.03.03.06.03.09.01.11-.06.23-.13.34-.2.26-.16.04-.51-.23-.4-.13.05-.24.12-.33.2" vector-effect="non-scaling-stroke"/>
    <path class="cls-1" d="m8.42,7.2c.21-.17.2-.53-.02-.8s-.57-.35-.78-.18h0c-.21.17-.2.53.02.8.22.27.57.35.78.18h0" vector-effect="non-scaling-stroke"/>
    <path class="cls-1" d="m14.88,9.5c.63-.56,1.5-.6,2.2-.13,0,0,0,0,.01,0,0,0,0,0,0,0,0-.11.01-.23.01-.34,0-.69,0-1.38.02-2.07,0-.01,0-.02-.02-.02-.75-.08-1.49-.08-2.24,0,0,0-.02,0-.02.02l.02,2.56s0,.01.01,0" vector-effect="non-scaling-stroke"/>
    <path class="cls-1" d="m17.29,9.55c.16.14.29.3.39.48.01.02.02.02.03,0l1.22-2.68s0-.03-.01-.03c0,0,0,0,0,0-.56-.17-1.13-.3-1.71-.37,0,0-.01,0-.01.01,0,0,0,0,0,0l.02,2.5s0,.02.01.03c.02.03.05.05.07.07" vector-effect="non-scaling-stroke"/>
    <path class="cls-1" d="m14.76,9.59c0-1.19.01-1.8.02-2.62,0-.01-.01-.03-.02-.03,0,0,0,0,0,0-.58.08-1.15.2-1.72.37,0,0-.01,0,0,.02,0,0,0,0,0,0l1.29,2.84s.01.01.02,0c.11-.2.25-.39.41-.55,0,0,.01-.02.01-.03" vector-effect="non-scaling-stroke"/>
    <path class="cls-1" d="m17.25,13.74c.52-.52,1.04-1.03,1.56-1.55.04-.04.07-.08.09-.13.54-1.36,1.08-2.72,1.62-4.08,0,0,0-.02,0-.02-.48-.24-.98-.45-1.5-.62,0,0-.02,0-.02,0l-1.22,2.82s0,.02,0,.03c.18.38.25.77.26,1.19.02.7-.27,1.32-.8,1.78,0,0-.01.02-.01.03v.55s0,.03.02,0" vector-effect="non-scaling-stroke"/>
    <path class="cls-1" d="m13.15,12.18c.52.52,1.05,1.04,1.57,1.56,0,0,.01,0,.01,0v-.69s0-.02,0-.03c-.68-.7-.82-1.78-.48-2.68,0,0,0-.02,0-.03l-1.28-2.96s-.02-.02-.03-.01c-.52.17-1.02.37-1.49.61,0,0-.01.01,0,.02.54,1.36,1.08,2.72,1.62,4.08.02.05.05.09.08.13" vector-effect="non-scaling-stroke"/>
    <path class="cls-1" d="m22.07,8.98s0-.02,0-.03c0,0,0,0,0,0-.46-.36-.96-.68-1.48-.95,0,0-.01,0-.02,0,0,0,0,0,0,0l-1.44,3.83s0,.04.02.01l2.92-2.87" vector-effect="non-scaling-stroke"/>
    <path class="cls-1" d="m9.89,8.97c.98.96,1.96,1.94,2.95,2.89.02.02.03.02.02-.01l-1.45-3.85s-.01-.02-.02-.01c0,0,0,0,0,0-.52.27-1.02.59-1.49.96,0,0,0,.01,0,.02,0,0,0,0,0,0" vector-effect="non-scaling-stroke"/>
    <path class="cls-1" d="m23.75,10.59c-.45-.58-1.02-1.14-1.6-1.58,0,0-.02,0-.02,0l-3.09,3.15s-.05.06-.06.1l-.79,2.06s0,.02,0,.02l.37.16s.02,0,.03,0l1.93-.74s.06-.03.08-.05l3.15-3.1s0-.02,0-.02" vector-effect="non-scaling-stroke"/>
    <path class="cls-1" d="m12.93,12.16c-1.02-1.05-2.06-2.09-3.08-3.14-.01-.01-.03-.01-.04,0-.58.46-1.1.98-1.58,1.57,0,.01,0,.03,0,.04l3.16,3.11s.04.03.06.04l1.94.74s.06.01.09,0l.31-.13s.02-.02.02-.03c-.27-.7-.53-1.39-.79-2.06-.02-.05-.05-.09-.08-.13" vector-effect="non-scaling-stroke"/>
    <path class="cls-1" d="m23.78,10.66c-.97.98-1.94,1.97-2.9,2.96,0,0,0,0,0,0l3.88-1.46s.01-.01,0-.02c0,0,0,0,0,0-.27-.53-.6-1.02-.97-1.49,0,0-.01,0-.02,0,0,0,0,0,0,0" vector-effect="non-scaling-stroke"/>
    <path class="cls-1" d="m11.08,13.61c-.96-.98-1.93-1.96-2.89-2.94,0,0-.01,0-.02,0,0,0,0,0,0,0-.37.47-.69.96-.97,1.48,0,0,0,.02,0,.03,0,0,0,0,0,0l3.85,1.45s.03,0,.01-.02" vector-effect="non-scaling-stroke"/>
    <path class="cls-1" d="m24.74,13.26s.06.05.06.1c0,.24-.02.47-.06.67,0,0,0,.01,0,0l.69-.29s.01-.01,0-.02c-.17-.52-.37-1.01-.62-1.49,0,0,0,0-.02,0-1.37.54-2.74,1.09-4.11,1.63-.05.02-.09.05-.13.08-.31.31-.62.62-.93.93,0,0,0,.01,0,.01l2,.48s.04,0,.06,0l1.81-.78s.02-.01.02-.02l.04-.34s0-.02,0-.03c-.2-.24-.31-.4-.21-.73.02-.05,0-.08-.06-.08-.25-.01-.5.08-.78.19-.02,0-.06,0-.02-.03.23-.19.49-.32.78-.39.17-.04.34-.03.51-.09.28-.1.46.08.68.27,0,0,.02.01.03.01.1,0,.19-.11.26-.07" vector-effect="non-scaling-stroke"/>
    <path class="cls-1" d="m7.81,14.29s.1.06.09,0c0-.03-.02-.06-.05-.08-.41-.26-.63-.69-.45-1.15.03-.07.18-.34.28-.22,0,0,0,.02,0,.03-.02.28.09.44.34.48.16.03.27-.05.39-.14.16-.12.07-.27.09-.44,0,0,0-.02-.01-.02l-1.31-.52s-.02,0-.03,0c-.25.48-.46.97-.62,1.49,0,0,0,.02,0,.02.42.18.84.36,1.26.54" vector-effect="non-scaling-stroke"/>
    <path class="cls-1" d="m17.25,14.1c.26.04.52.1.77.18,0,0,.02,0,.02,0l.7-1.79s0-.03-.01,0l-1.47,1.48s-.01.02-.01.03v.1s0,.02.01.02" vector-effect="non-scaling-stroke"/>
    <path class="cls-1" d="m14.35,13.59c-.36-.37-.73-.74-1.09-1.1-.02-.02-.03-.02-.02.01l.7,1.79s.01.01.02,0c.25-.08.5-.14.76-.19,0,0,.02,0,.02-.02.01-.06,0-.11-.01-.14-.09-.12-.27-.27-.37-.37" vector-effect="non-scaling-stroke"/>
    <path class="cls-1" d="m8.56,14.62l1.46.63s.04,0,.06,0c.72-.13,1.45-.27,2.18-.43.02,0,.02-.01,0-.03-.29-.28-.57-.57-.86-.86-.04-.04-.08-.06-.13-.08-.85-.34-1.71-.67-2.56-1.01-.02,0-.02,0,0,.01.2.26.3.73.09,1.02-.06.09-.18.17-.22.28-.06.15-.07.3-.02.46,0,0,0,0,0,0" vector-effect="non-scaling-stroke"/>
    <path class="cls-1" d="m15.07,14.06h.79s.02-.01.02-.02c0,0,0,0,0,0l-.2-.45s-.02-.02-.03-.03c-.28-.06-.53-.19-.74-.38-.01-.01-.02,0-.02,0v.7s0,.02.01.03l.14.14s.02,0,.03,0" vector-effect="non-scaling-stroke"/>
    <path class="cls-1" d="m16.09,14.06c.27-.01.53,0,.8,0,.01,0,.02,0,.03,0l.15-.14s.01-.02.01-.03v-.59s0-.01-.01,0c-.23.16-.48.26-.77.29,0,0-.02,0-.02.02l-.19.44s0,.01,0,.02c0,0,0,0,0,0" vector-effect="non-scaling-stroke"/>
    <path class="cls-1" d="m15.89,13.6s-.02,0-.02.01c0,0,0,0,0,0l.11.23s0,.01.01,0l.1-.23s0-.01,0-.01c0,0,0,0,0,0h-.2" vector-effect="non-scaling-stroke"/>
    <path class="cls-1" d="m7.93,15.55s.02-.01.02-.02c0,0,0,0,0,0l-.06-1.08s0-.02-.02-.02l-1.35-.62s-.02,0-.02,0c0,0,0,0,0,0-.18.58-.31,1.16-.38,1.74,0,0,0,.01.01.01,0,0,0,0,0,0l1.8-.02" vector-effect="non-scaling-stroke"/>
    <path class="cls-1" d="m24.1,15.54c.58,0,1.16.01,1.74.02,0,0,.01,0,.01-.01,0,0,0,0,0,0-.07-.58-.2-1.16-.38-1.73,0-.02-.02-.02-.04-.02,0,0,0,0,0,0l-1.29.59s-.03.02-.03.04l-.04,1.1s0,.01.01.02c0,0,0,0,0,0" vector-effect="non-scaling-stroke"/>
    <path class="cls-1" d="m11.71,14.04l.7.7s.05.03.08.02l.66-.16s.02-.01,0-.02l-1.43-.56s-.03,0-.01.02" vector-effect="non-scaling-stroke"/>
    <path class="cls-1" d="m18.78,14.62c.21.11.43.18.67.21,0,0,.02,0,.03,0,.26-.26.52-.52.79-.78,0,0,0-.02,0-.02-.49.19-.98.38-1.47.57-.02,0-.02.01,0,.02" vector-effect="non-scaling-stroke"/>
    <path class="cls-1" d="m24.48,14.04s-.05-.01-.07,0c-.1.05-.18.12-.23.22-.01.02,0,.02.01.01l.37-.16s0,0,0-.02c0,0,0,0,0,0-.02-.02-.04-.04-.08-.05" vector-effect="non-scaling-stroke"/>
    <path class="cls-1" d="m21.93,15.42c.21.05.4.1.62.1.28,0,.56,0,.84,0,0,0,.02,0,.02-.02l.11-.81s0-.02-.02-.02l-1.56.71s-.02.02,0,.03" vector-effect="non-scaling-stroke"/>
    <path class="cls-1" d="m9.09,15.54s.02,0,.02-.01c.02-.07.07-.11.15-.12.19-.03.37-.06.54-.09.03,0,.03-.01,0-.02l-1.22-.55s-.02,0-.02.01l.1.79s0,.01.02.01h.4" vector-effect="non-scaling-stroke"/>
    <path class="cls-1" d="m18.91,16.77c.79.35,1.57.7,2.35,1.05.05.02.1.03.15.03,1.48.01,2.97.03,4.45.04,0,0,.02,0,.02-.02.08-.75.08-1.49-.01-2.24,0,0,0-.02-.02-.01l-1.76.02s-.02,0-.02.02c-.02.36-.03.73-.04,1.09,0,.22-.02.37-.05.44-.12.31-.64.27-.75-.02-.02-.06-.03-.14,0-.26.05-.42.11-.83.16-1.25,0,0,0-.01-.01-.01,0,0,0,0,0,0h-.56s0,.01,0,.02c0,0,0,0,0,0,.03.05.04.1.04.14,0,.21,0,.43,0,.64,0,.04-.02.07-.06.08-.03,0-.07,0-.12,0-.83-.11-1.65-.22-2.47-.33-.02,0-.03,0-.05,0l-1.22.54s-.02.02,0,.03" vector-effect="non-scaling-stroke"/>
    <path class="cls-1" d="m13.07,16.75c-.42-.19-.84-.37-1.27-.56-.04-.02-.08-.03-.13-.02-.79.06-1.59.07-2.38.17-.11.01-.19-.01-.19-.13,0-.17,0-.35,0-.53,0,0,0-.02-.02-.02h-.39s-.01,0-.01.01c0,0,0,0,0,0,.05.39.1.78.15,1.17.02.18.01.26-.14.36-.2.14-.48.14-.61-.08-.07-.11-.08-.24-.08-.38,0-.27-.02-.63-.04-1.08,0,0,0-.02-.02-.02l-1.8-.02s-.03.01-.03.03c-.09.76-.09,1.51,0,2.24,0,0,0,.02.02.01l4.45-.04s.07,0,.1-.02l2.39-1.07s.03-.02,0-.03" vector-effect="non-scaling-stroke"/>
    <path class="cls-1" d="m19.82,16.15l-.63-.08s-.02,0-.03-.01c-.08-.06-.17-.08-.27-.07-.06,0-.1.04-.1.1-.01.17-.01.35,0,.53,0,0,0,0,0,0,0,0,0,0,0,0l1.02-.45s.03-.02,0-.03" vector-effect="non-scaling-stroke"/>
    <path class="cls-1" d="m12.07,16.14l1.1.48s.01,0,.01,0c0,0,0,0,0,0,.01-.17,0-.34,0-.51,0-.05-.03-.07-.08-.07-.35.02-.69.04-1.03.08-.03,0-.03.01,0,.02" vector-effect="non-scaling-stroke"/>
    <path class="cls-1" d="m13.18,17.82s.02-.06.01-.09c0-.27,0-.55,0-.82,0,0,0-.01-.01-.01,0,0,0,0,0,0l-2.15.94s-.02.02,0,.02h2.09s.04-.02.05-.04" vector-effect="non-scaling-stroke"/>
    <path class="cls-1" d="m18.82,17.83s.04.02.06.02c.69,0,1.38,0,2.06.01,0,0,.01,0,.01,0,0,0,0,0,0,0,0-.01-1.95-.86-2.14-.95,0,0-.01,0-.02,0,0,0,0,0,0,0v.88s.01.03.03.04" vector-effect="non-scaling-stroke"/>
    <path class="cls-1" d="m21.68,18.01l3.8,1.72s.01,0,.02,0c0,0,0,0,0,0,.17-.57.29-1.15.37-1.74,0,0,0-.02-.01-.02-.06-.01-.14,0-.18,0-1.33.01-2.66.02-3.99.03-.03,0-.03,0,0,.02" vector-effect="non-scaling-stroke"/>
    <path class="cls-1" d="m13.19,18.04s0-.02-.02,0l-1.47,1.47s0,0,0,0l1.47-.57s.01-.01.01-.02v-.87" vector-effect="non-scaling-stroke"/>
    <path class="cls-1" d="m18.8,18.93l1.48.58s.02,0,0,0l-1.48-1.46s-.02,0-.02,0v.87s0,.01,0,.01" vector-effect="non-scaling-stroke"/>
    <path class="cls-2" d="m14.91,21.73s.02-.01.02-.03c0,0,0,0,0,0,0-.02,0-.03-.01-.03,0,0-.02.01-.02.03h0s0,.03.01.03" vector-effect="non-scaling-stroke"/>
    <path class="cls-2" d="m17.09,21.73s0-.02,0-.04h0s-.02-.03-.02-.03h0s0,.02,0,.04h0s.02.03.02.03h0" vector-effect="non-scaling-stroke"/>
    <path class="cls-1" d="m6.51,7.49c-.08-.05-.15-.05-.23.02-.1.09-.2.19-.3.3-.03.04-.03.07,0,.11l.16.17s.09.05.14,0c.09-.08.16-.18.23-.27.08-.12.15-.22.01-.32" vector-effect="non-scaling-stroke"/>
    <path class="cls-1" d="m6.46,8.38c.19.37.43.23.62-.03.08-.11.14-.23.03-.35-.09-.09-.19-.15-.3-.05-.12.11-.24.23-.35.34-.02.02-.02.05-.01.08" vector-effect="non-scaling-stroke"/>
    <path class="cls-1" d="m26.37,10.06c-.04.24.12.57.41.55.38-.02,1-.41.73-.86-.15-.25-.36-.31-.63-.18-.21.1-.46.25-.5.49" vector-effect="non-scaling-stroke"/>
    <path class="cls-1" d="m28.11,11.95s.07.03.11.02c.38-.09.18-.43.09-.64-.03-.07-.09-.1-.18-.06-.1.04-.19.08-.26.13-.02.01-.03.04-.02.07.06.14.15.4.27.49" vector-effect="non-scaling-stroke"/>
  </g>
  <path class="cls-4" d="m0,0h32v32H0V0Zm13.68,5.7c4.57-.93,9.27,1,11.87,4.89,2.14,3.21,2.53,7.28,1.01,10.85-.04.09-.03.17.07.19.8.16,1.47.67,1.71,1.45.07.24.06.42.37.41.14,0,.27,0,.41,0,.14,0,.21-.04.27-.16,1.22-2.61,1.67-5.34,1.33-8.2-.79-6.7-6.18-12.07-12.89-12.9-.75-.09-1.47-.13-2.14-.12-5.39.11-10.33,3.16-12.84,7.95-2.17,4.15-2.26,9.15-.2,13.37.03.06.07.09.14.09h.93c.06,0,.09-.03.1-.08.12-.75.52-1.28,1.19-1.6.14-.07.27-.12.4-.18.06-.03.08-.07.06-.13-.12-.29-.23-.58-.33-.87-.47-1.33-.66-2.72-.61-4.14.2-5.27,3.98-9.76,9.15-10.81Zm-5.32,3.34c-3.33,3.26-4.27,8.23-2.28,12.47.02.04.05.06.1.06.28,0,.55.04.81.13.02,0,.02,0,.01-.01-2.32-4.36-1.23-9.69,2.63-12.78,2.25-1.8,5.22-2.57,8.08-2.07,6.83,1.2,10.49,8.72,7.22,14.85,0,.01,0,.02.01.02.28-.07.56-.11.86-.13,0,0,.02,0,.02-.01,1.44-3.02,1.4-6.49-.04-9.48-1.75-3.63-5.5-6.05-9.54-6.13-2.94-.06-5.78,1.04-7.89,3.09Zm1.93,8.97s.02,0,0,.01c-1.22.55-2.43,1.1-3.64,1.65-.05.02-.09.05-.12.07,0,0-.01.02-.01.03,0,.02.02.03.04.01.83-.36,2.18-.94,4.02-1.74.05-.02.1-.03.15-.03.75,0,1.49,0,2.23,0,.01,0,.01,0,0,.01l-1.59,1.6s-.04.03-.06.04c-1.37.54-2.74,1.08-4.09,1.62-.03.01-.07.04-.02.06,0,0,.02,0,.03,0l3.84-1.45s.03,0,0,.01l-2.83,2.88s-.01.02-.01.03c0,.02,0,.03.02.03,0,0,.02,0,.03,0,1.03-1,2.05-2.01,3.07-3.02.04-.04.08-.06.13-.08.56-.22,1.12-.44,1.69-.65,0,0,.01,0,.01,0,0,0,0,0,0,0,0,.52,0,1.05,0,1.57,0,.18-.12.43-.19.58-.02.04-.04.08-.08.11l-2.71,2.76s0,.01,0,.02c0,.05.17-.09.19-.1.82-.8,1.64-1.6,2.45-2.4.02-.02.02-.02.01,0-.35.94-.71,1.88-1.06,2.82-.02.04,0,.08.03.1,0,0,.02,0,.02-.01.41-1.04.82-2.07,1.23-3.11.03-.07.08-.13.14-.19,0,0,.01,0,.02,0,0,0,0,0,0,0,.14.27.28.38.6.39.3,0,.6,0,.9,0,0,0,.02,0,.02.01h0c0,.14.03.33-.03.46-.41.93-.81,1.87-1.21,2.8-.01.03,0,.07.04.06.03,0,.05-.03.06-.05l1.14-2.52s0,0,0,0c.03.48.01.97.02,1.45,0,.01,0,.02.01.02l.08.03s.01,0,.02,0c0,0,0,0,0,0,0-.58,0-1.15.01-1.73,0-.15.12-.36.19-.51,0,0,.01-.01.02-.01h1.78s.02,0,.02.01c.06.14.19.35.19.49,0,.44,0,.88.01,1.32,0,0,0,.02.01.02h.08s.02,0,.02-.01c0,0,0,0,0,0v-1.07s.02-.03.03,0l.48,1.07s.01.02.02.02c.03,0,.07,0,.1,0,0,0,.01-.01,0-.02,0,0,0,0,0,0-.19-.45-.38-.89-.58-1.34-.06-.14-.04-.33-.03-.47,0,0,0-.02.02-.01.26,0,.53,0,.79,0,.34,0,.56-.07.69-.39,0,0,0,0,.02,0,0,0,0,0,0,0,.13.1.16.2.23.38.38.97.77,1.94,1.15,2.91,0,0,.01.02.02.02.02,0,.04,0,.05-.03,0,0,0-.02,0-.03l-1.07-2.84s0-.04.02-.01c.68.67,1.36,1.34,2.05,2.01.1.1.15.16.27.17.02,0,.02,0,0-.02-.8-.81-1.6-1.62-2.4-2.44-.14-.14-.29-.54-.29-.74,0-.52,0-1.04,0-1.55,0,0,0-.01.01-.01,0,0,0,0,0,0l1.71.65s.04.02.06.04l3.07,3.02s.02.01.03,0c.02,0,.02-.02.02-.04,0,0,0-.02-.01-.03l-2.79-2.84s-.02-.02,0-.01c1.29.48,2.55.96,3.81,1.43.07.03.13-.02.04-.06-1.34-.54-2.69-1.07-4.04-1.6-.05-.02-.09-.05-.13-.08-.53-.53-1.04-1.05-1.55-1.56-.02-.02-.02-.03.01-.03.74,0,1.47,0,2.18,0,.05,0,.1,0,.15.03,1.25.54,2.51,1.08,3.76,1.63.04.02.15.06.32.13,0,0,.01.01,0,.02-.22.7-.52,1.37-.89,2,0,0,0,.01,0,.01.06,0,.11-.04.15-.1,3.09-5.55.39-12.5-5.66-14.46-4.91-1.59-10.26.83-12.29,5.57-1.25,2.91-1.07,6.16.47,8.92.04.07.1.11.17.13,0,0,.01,0,0,0-.71-1.2-1.15-2.5-1.32-3.89,0,0,0-.01.01-.02,0,0,0,0,0,0,1.32.01,2.64.02,3.95.03.08,0,.15,0,.21.01Zm-5.65,4.57c-.88.95-.37,2.46.86,2.78.07.02.12.04.14.05.1.08.11.27.11.39,0,1.14,0,2.28,0,3.42,0,.11-.02.31,0,.46.01.07.05.1.12.1.09,0,.17.02.22.09.02.03.03.02.03,0,0-1.26,0-2.52,0-3.79,0-.19-.06-.62.22-.65.59-.07,1.04-.35,1.34-.82.35-.54.37-1.22.03-1.77-.67-1.08-2.24-1.16-3.07-.27Zm19.68.84c-.16.9.49,1.81,1.38,1.97.01,0,.02,0,.03.01.19.17.12.59.12.82,0,1.1,0,2.21,0,3.31,0,.14-.02.24.14.26.12.01.19-.04.19-.15,0-1.27,0-2.54,0-3.81,0-.13.02-.37.19-.39.86-.08,1.59-.7,1.67-1.58.11-1.28-1.17-2.11-2.33-1.84-.69.16-1.27.7-1.4,1.4Zm-12.28,4.58c.13.04.3.08.53.1.1.01.16.05.16.15,0,.46,0,.93,0,1.39,0,.16.17.15.27.13.07,0,.1-.04.1-.11v-1.45c.01-.06.04-.09.1-.1l.61-.09c.07-.01.1-.05.1-.12,0-.15-.04-.26-.11-.43-.05-.12-.09-.26-.12-.42-.12-.75-.35-2.1-.7-4.07,0-.03-.02-.05-.03-.06,0,0-.01,0-.01,0,0,0,0,0,0,0-.21,1.15-.41,2.29-.6,3.44-.09.56-.26,1.07-.35,1.49-.01.07,0,.12.05.13Zm7.19-3.81c0-.08-.07-.15-.15-.15h-2.33c-.08,0-.15.07-.15.15h0v5.43c0,.08.07.15.15.15h2.33c.08,0,.15-.07.15-.15v-5.43ZM2.67,29.74s.05.02.08.02h2.37c.06,0,.09-.03.09-.09v-1.36s0-.01,0-.03c0,0,0-.01,0-.02,0-.95,0-1.67,0-2.17,0-.15.01-.25-.13-.3-.36-.13-.75-.35-.97-.65-.18-.24-.24-.49-.29-.79-.01-.09-.04-.15-.14-.15-.1,0-.4,0-.88,0-.11,0-.19.03-.19.15,0,1.76,0,3.53,0,5.29,0,.05.01.08.04.09Zm6.51-5.48s-.05-.04-.09-.04h-.69c-.05,0-.08.03-.09.08-.02.1-.03.21-.04.3-.16.79-.82,1.13-1.54,1.28-.13.03-.16.11-.16.24,0,1.13,0,2.27,0,3.4,0,.23.14.2.33.2.71,0,1.42,0,2.13,0,.11,0,.17-.06.17-.18,0-1.71,0-3.41,0-5.11,0-.04,0-.12-.03-.15Zm17.67,5.43s.08.02.14.02c.74,0,1.49,0,2.23,0,.05,0,.1-.02.13-.06,0,0,.01-.02.01-.03.03-.22.01-.48.01-.66v-4.58c0-.07-.03-.16-.11-.16-.26,0-.51,0-.77,0-.06,0-.09.03-.1.09-.05.95-.69,1.32-1.51,1.55-.09.03-.13.1-.13.19,0,1.17,0,2.34,0,3.51,0,.06.03.1.09.12Zm-4.09.05s.04.03.06.03c.71,0,1.42-.02,2.13,0,.15,0,.24,0,.29-.01.07-.02.1-.07.1-.16,0-1.2,0-2.4,0-3.6,0-.06-.03-.16-.08-.18-.73-.33-1.17-.52-1.34-1.42-.02-.09-.05-.15-.15-.15-.31,0-.59,0-.83,0-.14,0-.24.02-.24.18.01,1.55.01,3.22,0,5.01,0,.13,0,.21.06.29Zm-12.97,0s.05.03.08.03c.74,0,1.48,0,2.21,0,.09,0,.13-.04.13-.12,0-.31,0-.62,0-.93,0-.16.06-.35-.17-.36-.11,0-.2-.02-.28-.05-.05-.02-.07-.06-.06-.11.14-.82.28-1.63.42-2.44.02-.14.01-.19-.09-.29-.32-.32-.65-.64-.98-.97-.03-.03-.07-.04-.11-.02-.02.01-.05.03-.08.07-.28.28-.56.56-.84.83-.18.17-.25.21-.25.49,0,1.26,0,2.52,0,3.77,0,.04,0,.07.03.09Zm11.13-5.24c-.35.34-.71.68-1.06,1.04-.08.08-.1.15-.1.26.01,1.27.01,2.54,0,3.81,0,.13.07.15.19.15.71,0,1.42,0,2.13,0,.1,0,.15-.05.15-.15,0-1.28,0-2.56,0-3.85,0-.09-.02-.15-.05-.18-.37-.36-.74-.73-1.11-1.09-.04-.04-.09-.04-.13,0Zm-7.2,5.25s.05.02.08.02c.72,0,1.44,0,2.17,0,.09,0,.14-.04.14-.13,0-1.28,0-2.56,0-3.84,0-.08-.02-.19-.07-.24-.34-.33-.68-.67-1.01-1-.09-.09-.18-.09-.26,0-.1.1-.41.41-.93.93-.05.05-.07.1-.06.14.14.86.29,1.73.45,2.6,0,.06-.01.09-.07.1-.1.02-.21.03-.32.05-.11.01-.17.08-.16.19.01.35.01.7,0,1.05,0,.06,0,.11.06.14Z"/>
  <path d="m25.55,10.58c-2.6-3.89-7.29-5.81-11.87-4.89-5.17,1.05-8.95,5.55-9.15,10.81-.05,1.42.14,2.81.61,4.14.1.29.21.59.33.87.03.06,0,.11-.06.13-.13.05-.26.11-.4.18-.68.32-1.07.86-1.19,1.6,0,.05-.04.08-.1.08h-.93c-.06,0-.11-.03-.14-.09-2.06-4.22-1.98-9.22.2-13.37,2.51-4.79,7.45-7.84,12.84-7.95.68-.01,1.39.02,2.14.12,6.71.82,12.1,6.2,12.89,12.9.34,2.85-.11,5.59-1.33,8.2-.06.12-.12.16-.27.16-.14,0-.27,0-.41,0-.31,0-.3-.17-.37-.41-.24-.79-.92-1.29-1.71-1.45-.1-.02-.11-.11-.07-.19,1.52-3.57,1.13-7.63-1.01-10.85ZM14.91,3.11c-.57.11-.68.71-.58,1.18.14.6.72.83,1.25.57.63-.31.56-1.5-.1-1.75-.17-.06-.39-.04-.58,0Zm1.54.03s-.01.03-.01.04l-.14,1.58c0,.07.02.1.09.11.21.03.42.05.64.06.38.02.64-.14.77-.5.17-.45.13-1.13-.43-1.26-.19-.05-.55-.06-.8-.08-.05,0-.09,0-.12.04Zm-3.19.21c-.47-.03-.92.24-.96.73-.04.43.16,1.01.62,1.14.43.12,1.02-.11,1.11-.6.09-.52-.15-1.23-.76-1.27Zm5.95.14s-.05.05-.05.07c-.14.47-.28.94-.41,1.41-.03.1-.08.2.06.25.15.05.41.12.76.21.19.04.35.05.49-.07.24-.21.27-.45.11-.73-.01-.02,0-.04.01-.05,0,0,0,0,0,0,.29-.11.29-.55.1-.72-.06-.05-.19-.11-.4-.18-.21-.06-.41-.13-.63-.19-.02,0-.04,0-.05.01Zm-7.87.43s-.02.04-.01.06l.18.48s0,.08-.05.11c-.16.07-.32.14-.49.19-.04.01-.07,0-.09-.04l-.21-.48s-.06-.07-.11-.05c-.11.03-.28.06-.22.21.19.49.38.98.57,1.48.02.04.04.06.09.06.52,0-.03-.64.11-.85.07-.1.35-.19.46-.22.06-.01.1,0,.13.07l.21.54s.05.06.09.06c.07,0,.14-.04.21-.07.07-.04.06-.11.04-.18-.19-.48-.38-.96-.55-1.43-.02-.04-.04-.06-.09-.06-.11,0-.19.05-.26.12Zm9.6.25s-.04.06-.05.09c-.16.39-.32.78-.48,1.17-.03.09-.05.15-.05.19.01.14.17.22.29.17,0,0,.02-.01.02-.02l.61-1.5c.02-.05,0-.09-.03-.13-.13-.11-.23-.1-.32.02Zm.87.97l.26-.5s.02-.09-.01-.12c-.06-.07-.25-.18-.32-.06-.24.46-.48.92-.72,1.38-.03.05-.02.09.01.14.09.12.27.15.35-.02.07-.15.14-.39.34-.41.07,0,.1.02.11.09.02.19.04.39.07.6.04.23.16.38.41.39.01,0,.03-.01.03-.03,0,0,0,0,0,0-.04-.35-.09-.71-.15-1.06-.01-.08.05-.16.13-.18.26-.09.51-.17.77-.25.02,0,.02-.01,0-.03-.15-.14-.37-.25-.58-.16-.26.11-.49.19-.7.24-.01,0-.01,0,0-.01Zm-11.71.28c0-.08.02-.17.02-.24-.01-.28-.25-.5-.53-.48-.06,0-.15.03-.25.08-.24.12-.47.24-.7.38-.04.02-.05.06-.04.1.01.03.03.07.05.11.24.43.49.86.73,1.31.02.04.06.06.11.05.05-.01.12-.05.19-.1.04-.03.05-.07.03-.12l-.25-.44s-.02-.08,0-.11c.17-.24.49-.26.66-.01.05.08.11.16.16.23.03.05.07.06.12.03l.28-.15s0-.01,0-.02c0,0,0,0,0,0-.25-.18-.27-.5-.58-.61,0,0-.01-.01-.01-.02Zm12.93,1.25c.04-.09.1-.17.19-.26.02-.02.06-.03.08,0l.57.39s.08.03.12,0c.13-.11.12-.21-.02-.3-.15-.1-.31-.21-.47-.33-.05-.03-.05-.08-.02-.12l.15-.2s.01,0,.02,0c.05.02.11.06.17.1.18.13.36.25.53.38.02.01.05.01.06,0,.06-.06.1-.11.13-.17.02-.04.01-.07-.02-.09-.28-.2-.54-.39-.79-.57-.03-.02-.11-.09-.16-.1-.05,0-.08,0-.11.04-.3.41-.58.81-.87,1.2-.03.04-.05.07-.06.1-.02.05-.01.09.03.12.3.22.6.44.91.65.11.08.22-.05.25-.14.01-.04,0-.08-.04-.1l-.63-.46s-.05-.07-.03-.11Zm-15.76-.55c-.45.58.03,1.36.67,1.52.43.11.9-.27,1-.68.1-.44-.3-.96-.67-1.12-.34-.15-.76,0-.99.29Zm18.59,1.95c-.02.06-.09.15-.12.19-.17.24-.35.47-.53.71-.1.13.03.25.12.33.04.03.08.04.12.02l1.5-.75c.06-.03.07-.07.03-.13-.1-.15-.24-.18-.4-.09-.09.05-.84.5-.87.47,0,0,0-.02,0-.02l.63-.86s.04-.1.02-.16c-.05-.12-.2-.24-.34-.16-.31.18-.6.35-.85.51-.09.05-.11.04-.04-.05.2-.28.39-.55.57-.81.11-.16-.03-.36-.2-.38,0,0-.02,0-.02.01l-.87,1.4c-.03.05-.04.11-.02.17.04.12.16.22.3.14.3-.18.62-.36.95-.56.03-.02.04-.01.03.03Zm-18.44-.3c-.11-.13-.27-.2-.44-.2-.04,0-.07-.02-.08-.06-.04-.14-.09-.28-.22-.35-.31-.16-.49-.03-.72.21-.16.16-.31.32-.46.49-.04.04-.04.08,0,.12l1.17,1.12s.08.04.13,0c.16-.16.32-.33.47-.49.22-.24.38-.55.15-.82Zm-2.35,1.77s-.08.05-.12.02l-.46-.32s-.02,0-.03,0c-.09.07-.15.16-.19.25,0,.02,0,.04.02.05.43.31.85.61,1.26.89.09.06.16.13.24.01.04-.05.07-.1.09-.13.03-.04.02-.08-.02-.11l-.5-.37c-.05-.04-.06-.08-.02-.14l.27-.39c.04-.05.08-.06.13-.03.15.1.31.21.47.33.06.05.12.04.18-.01.11-.12.17-.22,0-.33-.16-.11-.54-.38-1.16-.82-.17-.12-.27,0-.32.15-.02.05,0,.09.04.12.11.08.22.16.33.25.11.1.05.18-.02.29-.07.1-.13.2-.19.28Zm20.96.74c.09.35.38.66.75.68.28.02.59-.12.81-.31.32-.28.41-.65.2-1.05-.5-.96-1.99-.24-1.76.68Zm-22.23,1.47c.61.53,1.62.21,1.47-.71,0-.02.01-.04.03-.05,0,0,0,0,.01,0,.13.02.2-.03.19-.17,0-.02-.01-.04-.03-.05l-.71-.36s-.09-.01-.11.04l-.28.56s0,.02,0,.03c.06.07.14.1.23.1,0,0,.02,0,.02-.01l.13-.23s.06-.05.09-.02c.34.29,0,.85-.39.78-.28-.05-.63-.27-.69-.56-.05-.24.13-.47.38-.52.07-.01.12-.03.15-.06.07-.06.17-.29,0-.3-.38-.01-.63.16-.78.51-.16.38-.07.73.27,1.03Zm23.73-.18c.16.16.29.43.05.6-.23.16-.53.18-.28.56.03.04.06.04.09.01.06-.05.1-.1.17-.13.17-.07.37-.11.41-.33,0-.04.03-.06.08-.04.43.19.87-.15.71-.61-.1-.28-.21-.55-.35-.81-.02-.04-.05-.05-.1-.03-.47.21-.94.41-1.4.61-.05.02-.09.05-.12.08-.02.02-.03.05-.02.07l.08.18c.02.05.06.07.12.04l.49-.21s.04,0,.06.01Zm-24.52.67l1.34.52s.1.03.15.03c.2.02.33-.25.1-.33-.48-.18-.96-.37-1.43-.55-.06-.02-.1,0-.13.04-.05.08-.07.16-.07.24,0,.02.01.04.03.05Zm25.57.91s-.01-.01,0-.02l.6-.18s.06-.05.05-.09l-.06-.2s-.05-.06-.09-.05l-1.54.43c-.06.02-.09.05-.09.11,0,.11.1.29.24.25.19-.06.49-.22.6.03,0,0,0,.02,0,.03-.14.18-.29.36-.44.54-.14.17-.09.37,0,.53.01.02.03.02.05.01,0,0,0,0,0,0,.23-.27.45-.54.66-.82.07-.09.14-.1.23-.05.23.14.47.26.71.38.02.01.03,0,.03-.02-.04-.25-.09-.4-.32-.52-.21-.11-.42-.22-.63-.34Zm-26.06.73s.03.03.05.03c.47.13.94.26,1.42.4.09.02.19.03.22-.07.1-.37.2-.73.29-1.08.01-.05,0-.09-.05-.12-.06-.03-.12-.05-.18-.04-.04,0-.06.02-.08.06-.07.23-.13.47-.19.7-.02.08-.06.14-.15.12-.11-.02-.34-.04-.3-.2.05-.21.11-.42.17-.62,0-.03,0-.06-.02-.08-.08-.07-.17-.08-.25-.03,0,0-.01.01-.02.02l-.17.61c-.02.06-.06.09-.12.1-.09,0-.3-.04-.26-.18.05-.19.1-.37.16-.56.05-.16.03-.27-.17-.28-.06,0-.09.02-.11.08-.08.3-.17.6-.25.91-.03.1-.06.15.02.24Zm.9,1.05s-.07.06-.13.09c-.35.14-.69.28-1.02.42-.07.03-.1.07-.1.13v.23s.01.05.04.06c.51.08,1.02.15,1.53.2.17.02.23-.11.2-.25,0-.03-.03-.05-.06-.06-.35-.08-.71-.09-1.06-.16-.01,0-.02,0-.02-.02,0-.02,0-.03.03-.04.39-.16.77-.32,1.16-.47.04-.02.07-.05.09-.09.03-.09.03-.19,0-.29,0,0,0-.02-.02-.02-.08-.02-.19-.03-.25-.03-.7-.09-1.12-.15-1.26-.17-.17-.03-.26.04-.26.2,0,.1.05.12.14.13.16.02.49.06.98.14.01,0,.01,0,0,.01Zm24.71.99c.18.13.37.16.58.1.34-.1.29-.67.34-.94.09-.46.57-.07.38.31-.05.1-.18.15-.18.28,0,.08.03.16.09.22,0,0,.02,0,.03,0,.65-.19.51-1.34-.14-1.38-.55-.04-.52.65-.58.99-.04.22-.26.29-.37.08-.07-.14-.14-.33-.03-.47.12-.16.31-.26.13-.48-.01-.02-.04-.02-.06-.02-.52.17-.49.82-.27,1.21.02.04.05.07.09.1Z"/>
  <path class="cls-4" d="m14.33,4.3c-.11-.47,0-1.08.58-1.18.18-.03.4-.05.58,0,.66.24.73,1.43.1,1.75-.53.26-1.12.03-1.25-.57Zm1.15-.76c-.24-.25-.68-.17-.77.19-.06.26-.06.6.13.79.15.15.46.19.64.02.23-.22.21-.77,0-.99Z"/>
  <path class="cls-4" d="m16.45,3.14s.07-.04.12-.04c.26.02.62.03.8.08.55.13.6.81.43,1.26-.13.35-.39.52-.77.5-.22-.01-.44-.03-.64-.06-.06,0-.09-.05-.09-.11l.14-1.58s0-.03.01-.04Zm.33.36s-.01.03-.02.05l-.08.99s.02.06.05.06c.23.04.51.08.65-.16.07-.13.11-.24.12-.33,0-.29.04-.57-.31-.65-.11-.03-.35-.07-.42.04Z"/>
  <path class="cls-4" d="m12.3,4.08c.05-.49.49-.76.96-.73.61.04.85.76.76,1.27-.09.49-.67.72-1.11.6-.45-.13-.66-.71-.62-1.14Zm.46-.22c-.19.26-.07.82.2.99.19.13.44.08.59-.09.26-.29.08-.99-.31-1.09-.16-.04-.38.04-.48.18Z"/>
  <path d="m14.71,3.73c.09-.36.53-.44.77-.19.21.22.23.77,0,.99-.17.17-.49.13-.64-.02-.19-.19-.19-.53-.13-.79Z"/>
  <path d="m16.78,3.5c.07-.11.31-.07.42-.04.35.08.31.37.31.65,0,.09-.04.2-.12.33-.14.24-.42.2-.65.16-.03,0-.05-.03-.05-.06l.08-.99s0-.03.02-.05Z"/>
  <path class="cls-4" d="m19.21,3.49s.03-.02.05-.01c.21.06.42.12.63.19.21.06.34.12.4.18.19.17.19.62-.1.72-.02,0-.03.03-.02.05,0,0,0,0,0,0,.16.28.13.52-.11.73-.14.12-.3.12-.49.07-.36-.08-.61-.15-.76-.21-.14-.05-.09-.15-.06-.25.13-.47.27-.94.41-1.41,0-.01.02-.03.05-.07Zm.23.43l-.09.24s0,.05.03.06c.13.08.48.22.62.11.06-.05.08-.11.07-.19,0-.06-.04-.1-.1-.12-.15-.06-.3-.1-.45-.14-.04,0-.06,0-.08.04Zm-.19.66c-.04.08-.13.27-.1.35.04.13.36.17.49.19.27.02.37-.33.09-.44-.13-.05-.27-.1-.41-.13-.03,0-.06,0-.07.03Z"/>
  <path d="m12.76,3.86c.1-.14.31-.22.48-.18.39.1.57.79.31,1.09-.15.17-.4.21-.59.09-.27-.17-.39-.73-.2-.99Z"/>
  <path class="cls-4" d="m11.35,3.92c.06-.07.15-.11.26-.12.04,0,.07.02.09.06.18.48.36.95.55,1.43.03.07.04.14-.04.18-.06.03-.14.08-.21.07-.04,0-.07-.02-.09-.06l-.21-.54c-.02-.06-.06-.08-.13-.07-.11.03-.4.11-.46.22-.14.21.41.84-.11.85-.04,0-.07-.02-.09-.06-.19-.5-.38-.99-.57-1.48-.06-.16.11-.19.22-.21.05-.01.09,0,.11.05l.21.48s.05.05.09.04c.17-.05.33-.11.49-.19.05-.02.06-.06.05-.11l-.18-.48s0-.04.01-.06Z"/>
  <path d="m19.44,3.92s.04-.05.08-.04c.15.04.3.08.45.14.06.02.09.06.1.12.01.08,0,.15-.07.19-.13.11-.49-.04-.62-.11-.02-.01-.03-.04-.03-.06l.09-.24Z"/>
  <path class="cls-4" d="m20.94,4.17c.09-.12.19-.13.32-.02.04.04.05.08.03.13l-.61,1.5s-.01.02-.02.02c-.13.05-.28-.03-.29-.17,0-.04.01-.11.05-.19.16-.39.32-.78.48-1.17.01-.03.03-.06.05-.09Z"/>
  <path class="cls-4" d="m21.82,5.16c.2-.05.44-.13.7-.24.21-.09.43.02.58.16.01.01.01.02,0,.03-.26.08-.51.16-.77.25-.08.03-.15.1-.13.18.06.35.11.71.15,1.06,0,.01,0,.03-.02.03,0,0,0,0,0,0-.25,0-.37-.15-.41-.39-.03-.21-.06-.41-.07-.6,0-.07-.04-.1-.11-.09-.19.02-.27.26-.34.41-.08.17-.26.14-.35.02-.03-.04-.04-.09-.01-.14.24-.46.48-.92.72-1.38.06-.12.26,0,.32.06.03.04.04.08.01.12l-.26.5s0,.01,0,.01Z"/>
  <path d="m19.25,4.58s.04-.04.07-.03c.14.03.28.08.41.13.28.11.18.47-.09.44-.12-.01-.45-.06-.49-.19-.02-.09.06-.27.1-.35Z"/>
  <path class="cls-4" d="m10.12,5.45c.31.1.33.43.58.61,0,0,0,.01,0,.02,0,0,0,0,0,0l-.28.15s-.09.01-.12-.03c-.05-.08-.11-.15-.16-.23-.17-.25-.49-.23-.66.01-.03.04-.03.07,0,.11l.25.44s.02.09-.03.12c-.08.05-.14.09-.19.1-.05.01-.08,0-.11-.05-.25-.45-.49-.88-.73-1.31-.02-.04-.04-.08-.05-.11-.01-.04,0-.08.04-.1.23-.14.47-.27.7-.38.1-.05.18-.08.25-.08.28-.02.52.2.53.48,0,.07-.02.16-.02.24,0,0,0,.02.01.02Zm-.99-.16s-.05.08-.03.13c.04.11.09.19.16.26.03.03.06.03.09.01.11-.06.23-.13.34-.2.26-.16.04-.51-.23-.4-.13.05-.24.12-.33.2Z"/>
  <path d="m9.12,5.29c.09-.09.2-.16.33-.2.27-.1.49.24.23.4-.11.07-.22.14-.34.2-.03.02-.07.01-.09-.01-.07-.07-.12-.15-.16-.26-.02-.05,0-.09.03-.13Z"/>
  <path class="cls-4" d="m23.03,6.68s-.01.08.03.11l.63.46s.05.06.04.1c-.03.09-.14.22-.25.14-.31-.21-.61-.43-.91-.65-.04-.03-.05-.07-.03-.12.01-.03.04-.06.06-.1.28-.38.57-.78.87-1.2.03-.04.06-.05.11-.04.04,0,.13.08.16.1.25.18.51.36.79.57.03.02.04.05.02.09-.03.05-.07.11-.13.17-.02.02-.04.02-.06,0-.17-.12-.35-.25-.53-.38-.06-.04-.12-.08-.17-.1,0,0-.02,0-.02,0l-.15.2s-.03.09.02.12c.16.12.32.23.47.33.14.09.14.19.02.3-.04.03-.08.04-.12,0l-.57-.39s-.06-.01-.08,0c-.08.09-.15.18-.19.26Z"/>
  <path class="cls-4" d="m7.93,7.64c-.64-.16-1.11-.94-.67-1.52.22-.29.65-.44.99-.29.38.17.77.68.67,1.12-.09.41-.57.79-1,.68Zm.48-.44c.21-.17.2-.53-.02-.8s-.57-.35-.78-.18h0c-.21.17-.2.53.02.8.22.27.57.35.78.18h0Z"/>
  <path d="m8.36,9.04c2.11-2.06,4.94-3.16,7.89-3.09,4.04.09,7.79,2.51,9.54,6.13,1.44,2.99,1.48,6.46.04,9.48,0,0-.01.01-.02.01-.3.01-.59.06-.86.13-.02,0-.02,0-.01-.02,3.27-6.13-.39-13.65-7.22-14.85-2.85-.5-5.83.27-8.08,2.07-3.87,3.09-4.96,8.42-2.63,12.78,0,.02,0,.02-.01.01-.26-.09-.53-.13-.81-.13-.05,0-.08-.02-.1-.06-1.99-4.24-1.05-9.21,2.28-12.47Z"/>
  <ellipse cx="8.01" cy="6.71" rx=".49" ry=".63" transform="translate(-2.44 6.59) rotate(-39.3)"/>
  <path d="m10.29,18.01c-.06,0-.13,0-.21-.01-1.32,0-2.63-.02-3.95-.03,0,0-.01,0-.01.01,0,0,0,0,0,0,.17,1.39.61,2.69,1.32,3.89,0,0,0,.01,0,0-.07-.03-.13-.06-.17-.13-1.54-2.76-1.72-6.01-.47-8.92,2.03-4.74,7.38-7.16,12.29-5.57,6.05,1.96,8.76,8.92,5.66,14.46-.03.06-.09.09-.15.1-.01,0-.01,0,0-.01.37-.64.67-1.3.89-2,0,0,0-.02,0-.02-.17-.07-.28-.11-.32-.13-1.25-.54-2.51-1.08-3.76-1.63-.05-.02-.1-.03-.15-.03-.71,0-1.44,0-2.18,0-.03,0-.04.01-.01.03.51.51,1.03,1.03,1.55,1.56.04.04.08.06.13.08,1.35.53,2.7,1.06,4.04,1.6.09.04.04.09-.04.06-1.25-.47-2.52-.95-3.81-1.43-.03,0-.03,0,0,.01l2.79,2.84s.01.02.01.03c0,.02,0,.03-.02.04,0,0-.02,0-.03,0l-3.07-3.02s-.04-.03-.06-.04l-1.71-.65s-.01,0-.01,0c0,0,0,0,0,0,0,.52,0,1.04,0,1.55,0,.2.15.6.29.74.8.81,1.6,1.62,2.4,2.44.01.01,0,.02,0,.02-.12,0-.17-.07-.27-.17-.69-.68-1.37-1.35-2.05-2.01-.02-.02-.03-.02-.02.01l1.07,2.84s0,.02,0,.03c-.01.02-.03.03-.05.03,0,0-.02,0-.02-.02-.38-.97-.77-1.94-1.15-2.91-.07-.18-.1-.28-.23-.38,0,0-.01,0-.02,0,0,0,0,0,0,0-.13.32-.35.39-.69.39-.26,0-.53,0-.79,0,0,0-.02,0-.02.01,0,.15-.03.33.03.47.19.45.39.89.58,1.34,0,0,0,.02,0,.02,0,0,0,0,0,0-.03.01-.07.02-.1,0,0,0-.02,0-.02-.02l-.48-1.07s-.02-.02-.02,0v1.07s-.02.02-.03.02c0,0,0,0,0,0h-.08s-.01-.01-.01-.02c0-.44,0-.88-.01-1.32,0-.15-.13-.36-.19-.49,0,0-.01-.01-.02-.01h-1.78s-.02,0-.02.01c-.06.14-.19.35-.19.51,0,.58,0,1.15-.01,1.73,0,0,0,.01-.01.01,0,0,0,0,0,0l-.08-.03s-.01-.01-.01-.02c-.01-.48.01-.97-.02-1.45,0,0,0-.01,0,0l-1.14,2.52s-.03.04-.06.05c-.04.01-.05-.03-.04-.06.4-.93.81-1.87,1.21-2.8.06-.13.03-.32.03-.46,0,0,0-.02-.02-.01h0c-.3,0-.6,0-.9,0-.32,0-.45-.12-.6-.39,0,0-.01,0-.02,0,0,0,0,0,0,0-.07.06-.11.12-.14.19-.41,1.03-.82,2.07-1.23,3.11,0,0-.01.01-.02.01-.04-.02-.05-.06-.03-.1.36-.94.71-1.88,1.06-2.82,0-.02,0-.03-.01,0-.81.8-1.63,1.6-2.45,2.4-.01.01-.19.15-.19.1,0,0,0-.01,0-.02l2.71-2.76s.06-.07.08-.11c.07-.16.19-.4.19-.58,0-.52,0-1.05,0-1.57,0,0,0-.01-.01-.01,0,0,0,0,0,0-.56.21-1.13.43-1.69.65-.05.02-.09.05-.13.08-1.02,1.01-2.05,2.02-3.07,3.02,0,0-.02,0-.03,0-.01,0-.02-.02-.02-.03,0,0,0-.02.01-.03l2.83-2.88s.01-.02,0-.01l-3.84,1.45s-.02,0-.03,0c-.05-.02,0-.05.02-.06,1.35-.54,2.71-1.08,4.09-1.62.02,0,.04-.02.06-.04l1.59-1.6s0-.01,0-.01c-.74,0-1.49,0-2.23,0-.05,0-.1.01-.15.03-1.85.8-3.19,1.38-4.02,1.74-.03.01-.04,0-.04-.01,0,0,0-.02.01-.03.03-.02.07-.05.12-.07,1.21-.55,2.42-1.1,3.64-1.65.02,0,.02-.01,0-.01Zm4.59-8.51c.63-.56,1.5-.6,2.2-.13,0,0,0,0,.01,0,0,0,0,0,0,0,0-.11.01-.23.01-.34,0-.69,0-1.38.02-2.07,0-.01,0-.02-.02-.02-.75-.08-1.49-.08-2.24,0,0,0-.02,0-.02.02l.02,2.56s0,.01.01,0Zm2.41.05c.16.14.29.3.39.48.01.02.02.02.03,0l1.22-2.68s0-.03-.01-.03c0,0,0,0,0,0-.56-.17-1.13-.3-1.71-.37,0,0-.01,0-.01.01,0,0,0,0,0,0l.02,2.5s0,.02.01.03c.02.03.05.05.07.07Zm-2.53.04c0-1.19.01-1.8.02-2.62,0-.01-.01-.03-.02-.03,0,0,0,0,0,0-.58.08-1.15.2-1.72.37,0,0-.01,0,0,.02,0,0,0,0,0,0l1.29,2.84s.01.01.02,0c.11-.2.25-.39.41-.55,0,0,.01-.02.01-.03Zm2.49,4.15c.52-.52,1.04-1.03,1.56-1.55.04-.04.07-.08.09-.13.54-1.36,1.08-2.72,1.62-4.08,0,0,0-.02,0-.02-.48-.24-.98-.45-1.5-.62,0,0-.02,0-.02,0l-1.22,2.82s0,.02,0,.03c.18.38.25.77.26,1.19.02.7-.27,1.32-.8,1.78,0,0-.01.02-.01.03v.55s0,.03.02,0Zm-4.1-1.55c.52.52,1.05,1.04,1.57,1.56,0,0,.01,0,.01,0v-.69s0-.02,0-.03c-.68-.7-.82-1.78-.48-2.68,0,0,0-.02,0-.03l-1.28-2.96s-.02-.02-.03-.01c-.52.17-1.02.37-1.49.61,0,0-.01.01,0,.02.54,1.36,1.08,2.72,1.62,4.08.02.05.05.09.08.13Zm8.92-3.21s0-.02,0-.03c0,0,0,0,0,0-.46-.36-.96-.68-1.48-.95,0,0-.01,0-.02,0,0,0,0,0,0,0l-1.44,3.83s0,.04.02.01l2.92-2.87Zm-12.19,0c.98.96,1.96,1.94,2.95,2.89.02.02.03.02.02-.01l-1.45-3.85s-.01-.02-.02-.01c0,0,0,0,0,0-.52.27-1.02.59-1.49.96,0,0,0,.01,0,.02,0,0,0,0,0,0Zm13.86,1.62c-.45-.58-1.02-1.14-1.6-1.58,0,0-.02,0-.02,0l-3.09,3.15s-.05.06-.06.1l-.79,2.06s0,.02,0,.02l.37.16s.02,0,.03,0l1.93-.74s.06-.03.08-.05l3.15-3.1s0-.02,0-.02Zm-10.82,1.57c-1.02-1.05-2.06-2.09-3.08-3.14-.01-.01-.03-.01-.04,0-.58.46-1.1.98-1.58,1.57,0,.01,0,.03,0,.04l3.16,3.11s.04.03.06.04l1.94.74s.06.01.09,0l.31-.13s.02-.02.02-.03c-.27-.7-.53-1.39-.79-2.06-.02-.05-.05-.09-.08-.13Zm10.85-1.5c-.97.98-1.94,1.97-2.9,2.96,0,0,0,0,0,0l3.88-1.46s.01-.01,0-.02c0,0,0,0,0,0-.27-.53-.6-1.02-.97-1.49,0,0-.01,0-.02,0,0,0,0,0,0,0Zm-12.71,2.95c-.96-.98-1.93-1.96-2.89-2.94,0,0-.01,0-.02,0,0,0,0,0,0,0-.37.47-.69.96-.97,1.48,0,0,0,.02,0,.03,0,0,0,0,0,0l3.85,1.45s.03,0,.01-.02Zm13.66-.35s.06.05.06.1c0,.24-.02.47-.06.67,0,0,0,.01,0,0l.69-.29s.01-.01,0-.02c-.17-.52-.37-1.01-.62-1.49,0,0,0,0-.02,0-1.37.54-2.74,1.09-4.11,1.63-.05.02-.09.05-.13.08-.31.31-.62.62-.93.93,0,0,0,.01,0,.01l2,.48s.04,0,.06,0l1.81-.78s.02-.01.02-.02l.04-.34s0-.02,0-.03c-.2-.24-.31-.4-.21-.73.02-.05,0-.08-.06-.08-.25-.01-.5.08-.78.19-.02,0-.06,0-.02-.03.23-.19.49-.32.78-.39.17-.04.34-.03.51-.09.28-.1.46.08.68.27,0,0,.02.01.03.01.1,0,.19-.11.26-.07Zm-16.93,1.03s.1.06.09,0c0-.03-.02-.06-.05-.08-.41-.26-.63-.69-.45-1.15.03-.07.18-.34.28-.22,0,0,0,.02,0,.03-.02.28.09.44.34.48.16.03.27-.05.39-.14.16-.12.07-.27.09-.44,0,0,0-.02-.01-.02l-1.31-.52s-.02,0-.03,0c-.25.48-.46.97-.62,1.49,0,0,0,.02,0,.02.42.18.84.36,1.26.54Zm9.44-.19c.26.04.52.1.77.18,0,0,.02,0,.02,0l.7-1.79s0-.03-.01,0l-1.47,1.48s-.01.02-.01.03v.1s0,.02.01.02Zm-2.89-.51c-.36-.37-.73-.74-1.09-1.1-.02-.02-.03-.02-.02.01l.7,1.79s.01.01.02,0c.25-.08.5-.14.76-.19,0,0,.02,0,.02-.02.01-.06,0-.11-.01-.14-.09-.12-.27-.27-.37-.37Zm-5.79,1.02l1.46.63s.04,0,.06,0c.72-.13,1.45-.27,2.18-.43.02,0,.02-.01,0-.03-.29-.28-.57-.57-.86-.86-.04-.04-.08-.06-.13-.08-.85-.34-1.71-.67-2.56-1.01-.02,0-.02,0,0,.01.2.26.3.73.09,1.02-.06.09-.18.17-.22.28-.06.15-.07.3-.02.46,0,0,0,0,0,0Zm6.51-.55h.79s.02-.01.02-.02c0,0,0,0,0,0l-.2-.45s-.02-.02-.03-.03c-.28-.06-.53-.19-.74-.38-.01-.01-.02,0-.02,0v.7s0,.02.01.03l.14.14s.02,0,.03,0Zm1.03,0c.27-.01.53,0,.8,0,.01,0,.02,0,.03,0l.15-.14s.01-.02.01-.03v-.59s0-.01-.01,0c-.23.16-.48.26-.77.29,0,0-.02,0-.02.02l-.19.44s0,.01,0,.02c0,0,0,0,0,0Zm-.21-.46s-.02,0-.02.01c0,0,0,0,0,0l.11.23s0,.01.01,0l.1-.23s0-.01,0-.01c0,0,0,0,0,0h-.2Zm-7.95,1.95s.02-.01.02-.02c0,0,0,0,0,0l-.06-1.08s0-.02-.02-.02l-1.35-.62s-.02,0-.02,0c0,0,0,0,0,0-.18.58-.31,1.16-.38,1.74,0,0,0,.01.01.01,0,0,0,0,0,0l1.8-.02Zm16.16-.01c.58,0,1.16.01,1.74.02,0,0,.01,0,.01-.01,0,0,0,0,0,0-.07-.58-.2-1.16-.38-1.73,0-.02-.02-.02-.04-.02,0,0,0,0,0,0l-1.29.59s-.03.02-.03.04l-.04,1.1s0,.01.01.02c0,0,0,0,0,0Zm-12.39-1.5l.7.7s.05.03.08.02l.66-.16s.02-.01,0-.02l-1.43-.56s-.03,0-.01.02Zm7.07.57c.21.11.43.18.67.21,0,0,.02,0,.03,0,.26-.26.52-.52.79-.78,0,0,0-.02,0-.02-.49.19-.98.38-1.47.57-.02,0-.02.01,0,.02Zm5.69-.57s-.05-.01-.07,0c-.1.05-.18.12-.23.22-.01.02,0,.02.01.01l.37-.16s0,0,0-.02c0,0,0,0,0,0-.02-.02-.04-.04-.08-.05Zm-2.55,1.38c.21.05.4.1.62.1.28,0,.56,0,.84,0,0,0,.02,0,.02-.02l.11-.81s0-.02-.02-.02l-1.56.71s-.02.02,0,.03Zm-12.84.12s.02,0,.02-.01c.02-.07.07-.11.15-.12.19-.03.37-.06.54-.09.03,0,.03-.01,0-.02l-1.22-.55s-.02,0-.02.01l.1.79s0,.01.02.01h.4Zm9.82,1.22c.79.35,1.57.7,2.35,1.05.05.02.1.03.15.03,1.48.01,2.97.03,4.45.04,0,0,.02,0,.02-.02.08-.75.08-1.49-.01-2.24,0,0,0-.02-.02-.01l-1.76.02s-.02,0-.02.02c-.02.36-.03.73-.04,1.09,0,.22-.02.37-.05.44-.12.31-.64.27-.75-.02-.02-.06-.03-.14,0-.26.05-.42.11-.83.16-1.25,0,0,0-.01-.01-.01,0,0,0,0,0,0h-.56s0,.01,0,.02c0,0,0,0,0,0,.03.05.04.1.04.14,0,.21,0,.43,0,.64,0,.04-.02.07-.06.08-.03,0-.07,0-.12,0-.83-.11-1.65-.22-2.47-.33-.02,0-.03,0-.05,0l-1.22.54s-.02.02,0,.03Zm-5.84-.02c-.42-.19-.84-.37-1.27-.56-.04-.02-.08-.03-.13-.02-.79.06-1.59.07-2.38.17-.11.01-.19-.01-.19-.13,0-.17,0-.35,0-.53,0,0,0-.02-.02-.02h-.39s-.01,0-.01.01c0,0,0,0,0,0,.05.39.1.78.15,1.17.02.18.01.26-.14.36-.2.14-.48.14-.61-.08-.07-.11-.08-.24-.08-.38,0-.27-.02-.63-.04-1.08,0,0,0-.02-.02-.02l-1.8-.02s-.03.01-.03.03c-.09.76-.09,1.51,0,2.24,0,0,0,.02.02.01l4.45-.04s.07,0,.1-.02l2.39-1.07s.03-.02,0-.03Zm6.75-.6l-.63-.08s-.02,0-.03-.01c-.08-.06-.17-.08-.27-.07-.06,0-.1.04-.1.1-.01.17-.01.35,0,.53,0,0,0,0,0,0,0,0,0,0,0,0l1.02-.45s.03-.02,0-.03Zm-7.75,0l1.1.48s.01,0,.01,0c0,0,0,0,0,0,.01-.17,0-.34,0-.51,0-.05-.03-.07-.08-.07-.35.02-.69.04-1.03.08-.03,0-.03.01,0,.02Zm1.11,1.67s.02-.06.01-.09c0-.27,0-.55,0-.82,0,0,0-.01-.01-.01,0,0,0,0,0,0l-2.15.94s-.02.02,0,.02h2.09s.04-.02.05-.04Zm5.64,0s.04.02.06.02c.69,0,1.38,0,2.06.01,0,0,.01,0,.01,0,0,0,0,0,0,0,0-.01-1.95-.86-2.14-.95,0,0-.01,0-.02,0,0,0,0,0,0,0v.88s.01.03.03.04Zm2.86.18l3.8,1.72s.01,0,.02,0c0,0,0,0,0,0,.17-.57.29-1.15.37-1.74,0,0,0-.02-.01-.02-.06-.01-.14,0-.18,0-1.33.01-2.66.02-3.99.03-.03,0-.03,0,0,.02Zm-8.49.03s0-.02-.02,0l-1.47,1.47s0,0,0,0l1.47-.57s.01-.01.01-.02v-.87Zm5.6.88l1.48.58s.02,0,0,0l-1.48-1.46s-.02,0-.02,0v.87s0,.01,0,.01Zm-3.89,2.81s.02-.01.02-.03c0,0,0,0,0,0,0-.02,0-.03-.01-.03,0,0-.02.01-.02.03h0s0,.03.01.03Zm2.19,0s0-.02,0-.04h0s-.02-.03-.02-.03h0s0,.02,0,.04h0s.02.03.02.03h0Z"/>
  <path class="cls-4" d="m17.08,9.37c-.7-.47-1.57-.42-2.2.13,0,0-.01,0-.01,0l-.02-2.56s0-.02.02-.02c.75-.08,1.49-.08,2.24,0,.01,0,.02.01.02.02-.01.69-.02,1.38-.02,2.07,0,.11,0,.23-.01.34,0,0,0,0,0,0,0,0,0,0,0,0Z"/>
  <path class="cls-4" d="m25.86,8.08s0-.05-.03-.03c-.33.2-.64.38-.95.56-.14.08-.25-.02-.3-.14-.02-.06-.02-.11.02-.17l.87-1.4s.01-.01.02-.01c.17.02.31.22.2.38-.19.26-.38.53-.57.81-.06.09-.05.1.04.05.26-.15.54-.32.85-.51.14-.08.29.04.34.16.02.06.02.11-.02.16l-.63.86s0,.02,0,.02c.04.03.78-.41.87-.47.17-.1.3-.07.4.09.04.06.03.1-.03.13l-1.5.75s-.08.02-.12-.02c-.09-.09-.22-.2-.12-.33.18-.23.36-.47.53-.71.04-.05.11-.13.12-.19Z"/>
  <path class="cls-4" d="m17.29,9.55s-.05-.05-.07-.07c0,0-.01-.02-.01-.03l-.02-2.5s0-.01.01-.01c0,0,0,0,0,0,.58.07,1.16.2,1.71.37.01,0,.02.02.02.03,0,0,0,0,0,0l-1.22,2.68s-.02.02-.03,0c-.11-.18-.24-.34-.39-.48Z"/>
  <path class="cls-4" d="m14.79,6.96c-.01.82-.02,1.43-.02,2.62,0,0,0,.02-.01.03-.16.17-.3.35-.41.55,0,.01-.01.01-.02,0l-1.29-2.84s0-.01,0-.02c0,0,0,0,0,0,.56-.17,1.14-.3,1.72-.37.01,0,.03,0,.03.02,0,0,0,0,0,0Z"/>
  <path class="cls-4" d="m7.42,7.78c.23.27.07.58-.15.82-.15.16-.31.33-.47.49-.04.04-.08.04-.13,0l-1.17-1.12s-.04-.08,0-.12c.15-.16.31-.32.46-.49.23-.24.41-.37.72-.21.13.07.18.22.22.35.01.04.04.06.08.06.17,0,.33.07.44.2Zm-.91-.29c-.08-.05-.15-.05-.23.02-.1.09-.2.19-.3.3-.03.04-.03.07,0,.11l.16.17s.09.05.14,0c.09-.08.16-.18.23-.27.08-.12.15-.22.01-.32Zm-.05.88c.19.37.43.23.62-.03.08-.11.14-.23.03-.35-.09-.09-.19-.15-.3-.05-.12.11-.24.23-.35.34-.02.02-.02.05-.01.08Z"/>
  <path class="cls-4" d="m18.81,12.18c-.52.52-1.04,1.03-1.56,1.55-.02.02-.02.01-.02,0v-.55s0-.02.01-.03c.53-.46.82-1.08.8-1.78-.01-.42-.08-.81-.26-1.19,0,0,0-.02,0-.03l1.22-2.82s.01-.01.02,0c.52.17,1.02.37,1.5.62,0,0,.01.02,0,.02-.54,1.36-1.08,2.72-1.62,4.08-.02.05-.05.09-.09.13Z"/>
  <path class="cls-4" d="m14.72,13.74c-.52-.52-1.05-1.04-1.57-1.56-.04-.04-.06-.08-.08-.13-.54-1.36-1.08-2.72-1.62-4.08,0,0,0-.02,0-.02.47-.24.97-.45,1.49-.61.01,0,.03,0,.03.01l1.28,2.96s0,.02,0,.03c-.34.89-.21,1.97.48,2.68,0,0,.01.02.01.03v.69s-.01.01-.02,0Z"/>
  <path d="m6.51,7.49c.14.1.07.2-.01.32-.07.1-.14.19-.23.27-.05.05-.09.05-.14,0l-.16-.17s-.03-.07,0-.11c.1-.11.2-.21.3-.3.08-.07.16-.07.23-.02Z"/>
  <path d="m7.08,8.35c-.19.25-.43.4-.62.03-.01-.03,0-.06.01-.08.11-.12.22-.23.35-.34.11-.1.21-.04.3.05.11.11.05.23-.03.35Z"/>
  <path class="cls-4" d="m22.07,8.98l-2.92,2.87s-.04.02-.02-.01l1.44-3.83s.01-.01.02,0c0,0,0,0,0,0,.53.27,1.02.59,1.48.95,0,0,.01.02,0,.03,0,0,0,0,0,0Z"/>
  <path class="cls-4" d="m12.83,11.87c-.99-.96-1.96-1.93-2.95-2.89,0,0,0-.01,0-.02,0,0,0,0,0,0,.47-.37.96-.68,1.49-.96,0,0,.02,0,.03,0,0,0,0,0,0,0l1.45,3.85s0,.03-.02.01Z"/>
  <path class="cls-4" d="m5.07,9.55c.06-.08.12-.17.19-.28.07-.12.14-.19.02-.29-.1-.09-.21-.18-.33-.25-.04-.03-.06-.07-.04-.12.05-.15.15-.27.32-.15.61.44,1,.71,1.16.82.17.11.1.21,0,.33-.05.06-.11.06-.18.01-.16-.12-.31-.23-.47-.33-.05-.03-.1-.02-.13.03l-.27.39c-.04.06-.03.1.02.14l.5.37s.05.07.02.11c-.02.03-.05.08-.09.13-.08.12-.15.05-.24-.01-.41-.28-.83-.58-1.26-.89-.02-.01-.02-.03-.02-.05.04-.1.1-.18.19-.25,0,0,.02,0,.03,0l.46.32s.09.03.12-.02Z"/>
  <path class="cls-4" d="m22.15,9.01c.58.45,1.15,1.01,1.6,1.58,0,0,0,.02,0,.02l-3.15,3.1s-.05.04-.08.05l-1.93.74s-.02,0-.03,0l-.37-.16s-.01-.01,0-.02l.79-2.06s.03-.07.06-.1l3.09-3.15s.02,0,.02,0Z"/>
  <path class="cls-4" d="m9.85,9.02c1.02,1.05,2.06,2.09,3.08,3.14.04.04.06.08.08.13.26.68.52,1.36.79,2.06,0,.01,0,.03-.02.03l-.31.13s-.06.01-.09,0l-1.94-.74s-.04-.02-.06-.04l-3.16-3.11s-.01-.03,0-.04c.47-.59,1-1.11,1.58-1.57.01-.01.03,0,.04,0Z"/>
  <path class="cls-4" d="m26.79,10.98c-.37-.03-.66-.34-.75-.68-.23-.91,1.26-1.64,1.76-.68.2.39.12.77-.2,1.05-.22.19-.52.33-.81.31Zm-.42-.92c-.04.24.12.57.41.55.38-.02,1-.41.73-.86-.15-.25-.36-.31-.63-.18-.21.1-.46.25-.5.49Z"/>
  <path d="m26.78,10.61c-.29.02-.45-.31-.41-.55.04-.24.29-.4.5-.49.27-.12.49-.06.63.18.27.45-.34.84-.73.86Z"/>
  <path class="cls-4" d="m3.81,11.76c-.35-.3-.44-.64-.27-1.03.15-.34.4-.52.78-.51.18,0,.07.24,0,.3-.03.02-.08.04-.15.06-.25.05-.43.27-.38.52.06.29.41.51.69.56.39.07.73-.49.39-.78-.04-.03-.07-.03-.09.02l-.13.23s-.01.01-.02.01c-.1,0-.17-.03-.23-.1,0,0,0-.02,0-.03l.28-.56s.06-.06.11-.04l.71.36s.03.03.03.05c0,.14-.06.2-.19.17-.02,0-.04.01-.05.03,0,0,0,0,0,.01.16.92-.85,1.24-1.47.71Z"/>
  <path class="cls-4" d="m20.88,13.61c.96-.99,1.93-1.98,2.9-2.96,0,0,.01,0,.02,0,0,0,0,0,0,0,.37.46.69.96.97,1.49,0,0,0,.01,0,.02,0,0,0,0,0,0l-3.88,1.46s-.01,0,0,0Z"/>
  <path class="cls-4" d="m8.19,10.67c.96.98,1.93,1.96,2.89,2.94.02.02.02.03-.01.02l-3.85-1.45s-.02-.01-.01-.03c0,0,0,0,0,0,.27-.52.6-1.01.97-1.48,0,0,.01,0,.02,0,0,0,0,0,0,0Z"/>
  <path class="cls-4" d="m27.53,11.58s-.04-.02-.06-.01l-.49.21c-.06.02-.1.01-.12-.04l-.08-.18s0-.05.02-.07c.03-.03.07-.05.12-.08.47-.2.94-.4,1.4-.61.04-.02.08,0,.1.03.14.26.25.53.35.81.16.46-.28.8-.71.61-.04-.02-.07,0-.08.04-.04.22-.23.26-.41.33-.07.03-.11.08-.17.13-.04.03-.07.03-.09-.01-.26-.38.04-.4.28-.56.24-.17.11-.44-.05-.6Zm.58.38s.07.03.11.02c.38-.09.18-.43.09-.64-.03-.07-.09-.1-.18-.06-.1.04-.19.08-.26.13-.02.01-.03.04-.02.07.06.14.15.4.27.49Z"/>
  <path d="m28.11,11.95c-.12-.08-.21-.35-.27-.49,0-.02,0-.05.02-.07.08-.05.16-.09.26-.13.09-.03.15-.01.18.06.09.21.29.55-.09.64-.04,0-.08,0-.11-.02Z"/>
  <path class="cls-4" d="m3.01,12.24s-.03-.03-.03-.05c0-.08.02-.16.07-.24.03-.05.08-.07.13-.04.47.18.95.37,1.43.55.23.09.1.35-.1.33-.06,0-.11-.02-.15-.03l-1.34-.52Z"/>
  <path class="cls-4" d="m24.74,13.26c-.07-.04-.17.08-.26.07,0,0-.02,0-.03-.01-.22-.19-.4-.36-.68-.27-.17.06-.33.05-.51.09-.29.07-.55.2-.78.39-.04.04,0,.03.02.03.28-.11.53-.2.78-.19.05,0,.07.03.06.08-.1.33,0,.49.21.73,0,0,.01.02,0,.03l-.04.34s0,.02-.02.02l-1.81.78s-.04.01-.06,0l-2-.48s-.01,0,0-.01c.31-.31.62-.62.93-.93.04-.04.08-.06.13-.08,1.37-.54,2.74-1.08,4.11-1.63,0,0,.01,0,.02,0,.25.48.46.98.62,1.49,0,0,0,.02,0,.02l-.69.29s-.01,0,0,0c.04-.2.06-.42.06-.67,0-.04-.02-.08-.06-.1Z"/>
  <path class="cls-4" d="m7.81,14.29c-.42-.18-.84-.36-1.26-.54,0,0-.01-.01,0-.02.17-.51.37-1.01.62-1.49,0,0,.02-.01.03,0l1.31.52s.01.01.01.02c-.02.17.07.32-.09.44-.12.09-.23.17-.39.14-.25-.04-.36-.2-.34-.48,0-.01,0-.02,0-.03-.1-.12-.25.15-.28.22-.19.46.03.89.45,1.15.03.02.05.04.05.08,0,.05-.07,0-.09,0Z"/>
  <path class="cls-4" d="m17.25,14.1s-.02,0-.02-.02v-.1s.01-.02.02-.03l1.47-1.48s.02-.02.01,0l-.7,1.79s-.01.01-.02,0c-.25-.08-.51-.14-.77-.18Z"/>
  <path class="cls-4" d="m14.35,13.59c.1.11.28.25.37.37.02.03.03.07.01.14,0,0,0,.02-.02.02-.26.05-.51.11-.76.19,0,0-.02,0-.02,0l-.7-1.79s0-.03.02-.01c.36.36.73.73,1.09,1.1Z"/>
  <path class="cls-4" d="m28.58,13.16c.21.12.42.23.63.34.24.12.28.27.32.52,0,.03,0,.03-.03.02-.24-.12-.48-.25-.71-.38-.09-.05-.17-.04-.23.05-.21.28-.43.55-.66.82-.01.01-.03.02-.05,0,0,0,0,0,0,0-.1-.16-.15-.37,0-.53.15-.18.3-.36.44-.54,0,0,0-.02,0-.03-.11-.25-.41-.09-.6-.03-.14.04-.24-.14-.24-.25,0-.06.03-.09.09-.11l1.54-.43s.08,0,.09.05l.06.2s0,.08-.05.09l-.6.18s-.02.01,0,.02Z"/>
  <path class="cls-4" d="m2.51,13.89c-.08-.09-.04-.14-.02-.24.08-.31.17-.61.25-.91.02-.06.05-.08.11-.08.19,0,.21.12.17.28-.05.19-.11.37-.16.56-.04.14.17.19.26.18.06,0,.1-.03.12-.1l.17-.61s0-.02.02-.02c.08-.05.17-.04.25.03.02.02.03.05.02.08-.06.2-.12.41-.17.62-.04.16.19.18.3.2.09.02.13-.03.15-.12.06-.23.12-.47.19-.7.01-.04.04-.06.08-.06.05,0,.11,0,.18.04.05.03.07.06.05.12-.09.35-.19.71-.29,1.08-.03.1-.13.09-.22.07-.48-.13-.95-.27-1.42-.4-.02,0-.04-.02-.05-.03Z"/>
  <path class="cls-4" d="m8.56,14.62s0,0,0,0c-.05-.16-.04-.31.02-.46.05-.11.16-.19.22-.28.21-.29.11-.76-.09-1.02-.01-.01,0-.02,0-.01.85.34,1.7.68,2.56,1.01.05.02.09.05.13.08.29.29.58.58.86.86.01.01.01.02,0,.03-.73.16-1.46.3-2.18.43-.02,0-.04,0-.06,0l-1.46-.63Z"/>
  <path class="cls-4" d="m15.04,14.05l-.14-.14s0-.02,0-.03v-.7s0-.02.02,0c.22.19.46.32.74.38.01,0,.03.01.03.03l.2.45s0,.02-.01.03c0,0,0,0,0,0h-.79s-.02,0-.03,0Z"/>
  <path class="cls-4" d="m16.89,14.07c-.27,0-.53-.02-.8,0,0,0-.01,0-.01-.01,0,0,0,0,0,0l.19-.44s.01-.01.02-.02c.28-.03.54-.13.77-.29,0,0,.01,0,.01,0v.59s0,.02-.01.03l-.15.14s-.02,0-.03,0Z"/>
  <path class="cls-4" d="m15.89,13.6h.2s.01,0,.01.02c0,0,0,0,0,0l-.1.23s0,.01-.01,0l-.11-.23s0-.02,0-.02c0,0,0,0,0,0Z"/>
  <path class="cls-4" d="m7.93,15.55l-1.8.02s-.01,0-.01-.01c0,0,0,0,0,0,.07-.58.2-1.16.38-1.74,0,0,.01-.01.02-.01,0,0,0,0,0,0l1.35.62s.01.01.02.02l.06,1.08s0,.02-.02.02c0,0,0,0,0,0Z"/>
  <path class="cls-4" d="m25.84,15.56c-.58-.01-1.16-.02-1.74-.02,0,0-.01,0-.01-.01,0,0,0,0,0,0l.04-1.1s.01-.03.03-.04l1.29-.59s.03,0,.04.01c0,0,0,0,0,0,.18.57.3,1.15.38,1.73,0,0,0,.01-.01.02,0,0,0,0,0,0Z"/>
  <path class="cls-4" d="m11.71,14.04s-.02-.03.01-.02l1.43.56s.02.01,0,.02l-.66.16s-.06,0-.08-.02l-.7-.7Z"/>
  <path class="cls-4" d="m18.78,14.62s-.02-.02,0-.02c.48-.19.97-.38,1.47-.57.01,0,.02,0,0,.02-.27.26-.53.52-.79.78,0,0-.02.01-.03,0-.23-.03-.45-.1-.67-.21Z"/>
  <path class="cls-4" d="m24.48,14.04s.06.03.08.05c0,0,0,.01,0,.02,0,0,0,0,0,0l-.37.16s-.02,0-.01-.01c.06-.1.13-.17.23-.22.02-.01.05-.01.07,0Z"/>
  <path class="cls-4" d="m3.41,14.92c-.49-.07-.82-.12-.98-.14-.09-.01-.14-.03-.14-.13,0-.16.08-.22.26-.2.13.02.55.08,1.26.17.06,0,.16.01.25.03,0,0,.02,0,.02.02.03.1.02.2,0,.29-.01.04-.04.07-.09.09-.39.16-.77.32-1.16.47-.03.01-.03.02-.03.04,0,0,.01.01.02.02.35.07.72.08,1.06.16.03,0,.05.03.06.06.03.15-.03.27-.2.25-.51-.05-1.02-.12-1.53-.2-.03,0-.05-.03-.05-.06v-.23c.01-.06.05-.11.11-.13.34-.13.68-.27,1.02-.42.06-.02.1-.05.13-.09,0,0,0-.01,0-.01Z"/>
  <path class="cls-4" d="m28.12,15.93s-.07-.06-.09-.1c-.21-.39-.24-1.05.27-1.21.02,0,.04,0,.06.02.18.22-.01.33-.13.48-.11.14-.03.33.03.47.1.22.33.14.37-.08.06-.34.03-1.03.58-.99.65.04.79,1.2.14,1.38,0,0-.02,0-.03,0-.06-.07-.09-.14-.09-.22,0-.12.13-.17.18-.28.19-.38-.29-.77-.38-.31-.05.27,0,.84-.34.94-.21.06-.4.03-.58-.1Z"/>
  <path class="cls-4" d="m21.93,15.42s-.03-.02,0-.03l1.56-.71s.02,0,.02.02l-.11.81s0,.02-.02.02c-.28,0-.56,0-.84,0-.22,0-.41-.05-.62-.1Z"/>
  <path class="cls-4" d="m9.09,15.54h-.4s-.02,0-.02-.01l-.1-.79s0-.02.02-.01l1.22.55s.02.02,0,.02c-.18.03-.36.06-.54.09-.08.01-.13.05-.15.12,0,0,0,.01-.02.01Z"/>
  <path class="cls-4" d="m18.91,16.77s-.02-.02,0-.03l1.22-.54s.03,0,.05,0c.82.11,1.65.22,2.47.33.05,0,.09,0,.12,0,.04,0,.06-.04.06-.08,0-.21,0-.43,0-.64,0-.04-.01-.08-.04-.14,0,0,0-.01,0-.01,0,0,0,0,0,0h.56s.01,0,.01,0c0,0,0,0,0,0-.05.42-.11.83-.16,1.25-.02.12-.01.21,0,.26.11.29.64.33.75.02.03-.08.05-.23.05-.44,0-.36.02-.73.04-1.09,0,0,0-.02.02-.02l1.76-.02s.02,0,.02.01c.09.75.09,1.49.01,2.24,0,0,0,.02-.02.02-1.48-.01-2.97-.03-4.45-.04-.05,0-.1-.01-.15-.03-.78-.35-1.57-.7-2.35-1.05Z"/>
  <path class="cls-4" d="m13.07,16.75s.03.02,0,.03l-2.39,1.07s-.06.02-.1.02l-4.45.04s-.02,0-.02-.01c-.09-.73-.08-1.48,0-2.24,0-.02.02-.03.03-.03l1.8.02s.02,0,.02.02c.02.45.03.81.04,1.08,0,.13.01.27.08.38.13.22.41.22.61.08.15-.1.16-.18.14-.36-.05-.39-.1-.78-.15-1.17,0,0,0-.01.01-.02,0,0,0,0,0,0h.39s.02,0,.02.02c0,.18,0,.36,0,.53,0,.12.08.15.19.13.78-.11,1.59-.12,2.38-.17.04,0,.09,0,.13.02.43.19.85.38,1.27.56Z"/>
  <path class="cls-4" d="m19.82,16.15s.03.01,0,.03l-1.02.45s0,0,0,0c0,0,0,0,0,0-.01-.18-.01-.36,0-.53,0-.06.04-.1.1-.1.1,0,.19.01.27.07,0,0,.02.01.03.01l.63.08Z"/>
  <path class="cls-4" d="m12.07,16.14s-.03-.02,0-.02c.33-.04.67-.06,1.03-.08.05,0,.08.02.08.07.02.17.02.34,0,.51,0,0,0,.01-.01.01,0,0,0,0,0,0l-1.1-.48Z"/>
  <path class="cls-4" d="m13.18,17.82s-.03.03-.05.03h-2.09s-.03,0,0,0l2.15-.94s.01,0,.02,0c0,0,0,0,0,0,0,.27-.01.54,0,.82,0,.03,0,.06-.01.09Z"/>
  <path class="cls-4" d="m18.82,17.83s-.03-.02-.03-.04v-.88s0-.01.01-.01c0,0,0,0,0,0,.19.09,2.14.94,2.14.95,0,0,0,0,0,0,0,0,0,0,0,0-.69,0-1.38,0-2.06-.01-.02,0-.04-.01-.06-.02Z"/>
  <path class="cls-4" d="m21.68,18.01s-.02-.02,0-.02c1.33,0,2.66-.02,3.99-.03.04,0,.12-.01.18,0,0,0,.01,0,.01.02-.08.59-.2,1.17-.37,1.74,0,0,0,.01-.02,0,0,0,0,0,0,0l-3.8-1.72Z"/>
  <path class="cls-4" d="m13.19,18.04v.87s0,.02-.01.02l-1.47.57s-.01,0,0,0l1.47-1.47s.02,0,.02,0Z"/>
  <path class="cls-4" d="m18.8,18.93s0,0,0-.01v-.87s0-.02.02,0l1.48,1.46s.01.02,0,0l-1.48-.58Z"/>
  <ellipse class="cls-3" cx="14.91" cy="21.7" rx=".03" ry=".02" transform="translate(-8.14 34.42) rotate(-84.4)"/>
  <ellipse class="cls-3" cx="17.08" cy="21.7" rx=".01" ry=".03" transform="translate(-6.39 7.15) rotate(-20)"/>
  <path d="m5.5,25.36c-1.23-.32-1.74-1.83-.86-2.78.83-.9,2.4-.81,3.07.27.34.55.32,1.22-.03,1.77-.3.47-.75.74-1.34.82-.28.03-.22.46-.22.65,0,1.26,0,2.52,0,3.79,0,.03,0,.04-.03,0-.05-.07-.12-.1-.22-.09-.07,0-.11-.03-.12-.1-.02-.15,0-.35,0-.46,0-1.14,0-2.28,0-3.42,0-.12,0-.31-.11-.39-.02-.02-.07-.04-.14-.05Z"/>
  <path d="m25.7,25.38c-.89-.16-1.54-1.07-1.38-1.97.13-.71.71-1.24,1.4-1.4,1.16-.27,2.44.56,2.33,1.84-.08.88-.8,1.5-1.67,1.58-.17.02-.19.26-.19.39,0,1.27,0,2.54,0,3.81,0,.12-.06.17-.19.15-.16-.02-.14-.12-.14-.26,0-1.1,0-2.21,0-3.31,0-.23.07-.64-.12-.82,0,0-.02-.01-.03-.01Z"/>
  <path d="m12.04,27.99c-.05-.02-.07-.06-.05-.13.09-.42.26-.93.35-1.49.19-1.15.39-2.3.6-3.44,0,0,0-.01.01-.01,0,0,0,0,0,0,.02.01.03.03.03.06.34,1.97.57,3.32.7,4.07.03.16.06.3.12.42.07.17.12.28.11.43,0,.07-.04.11-.1.12l-.61.09c-.06,0-.09.04-.09.1v1.45c-.01.07-.04.1-.11.11-.11.01-.27.02-.27-.13,0-.46,0-.93,0-1.39,0-.1-.06-.14-.16-.15-.23-.03-.41-.06-.53-.1Z"/>
  <rect x="16.61" y="24.04" width="2.62" height="5.73" rx=".15" ry=".15"/>
  <path d="m2.67,29.74s-.04-.05-.04-.09c0-1.76,0-3.53,0-5.29,0-.12.08-.15.19-.15.48,0,.78,0,.88,0,.1,0,.12.06.14.15.05.3.11.55.29.79.22.3.61.51.97.65.14.05.13.15.13.3,0,.5,0,1.22,0,2.17,0,0,0,.01,0,.02,0,.02,0,.03,0,.03v1.36c0,.06-.04.09-.1.09h-2.37s-.05,0-.08-.02Z"/>
  <path d="m9.18,24.26s.03.11.03.15c0,1.7,0,3.41,0,5.11,0,.12-.06.18-.17.18-.71,0-1.42,0-2.13,0-.19,0-.33.03-.33-.2,0-1.13,0-2.27,0-3.4,0-.13.03-.21.16-.24.71-.15,1.38-.49,1.54-1.28.02-.08.02-.2.04-.3.01-.05.04-.07.09-.07h.69s.06.01.09.04Z"/>
  <path d="m26.85,29.69c-.06-.02-.09-.06-.09-.12,0-1.17,0-2.35,0-3.51,0-.1.04-.17.13-.19.82-.22,1.46-.6,1.51-1.55,0-.06.04-.09.1-.09.26,0,.51,0,.77,0,.08,0,.11.09.11.16v4.58c0,.18.02.44-.01.66,0,.01,0,.02-.01.03-.04.04-.08.06-.13.06-.75,0-1.49,0-2.23,0-.06,0-.11,0-.14-.02Z"/>
  <path d="m22.76,29.74c-.07-.08-.07-.16-.06-.29.01-1.79.01-3.46,0-5.01,0-.17.1-.19.24-.18.24,0,.52,0,.83,0,.1,0,.13.05.15.15.17.9.61,1.09,1.34,1.42.05.02.08.12.08.18,0,1.2,0,2.4,0,3.6,0,.09-.03.14-.1.16-.05.01-.15.02-.29.01-.71-.02-1.42,0-2.13,0-.02,0-.04,0-.06-.03Z"/>
  <path d="m9.79,29.73s-.03-.05-.03-.09c0-1.26,0-2.51,0-3.77,0-.28.08-.32.25-.49.28-.28.56-.55.84-.83.04-.04.06-.06.08-.07.04-.02.08-.02.11.02.33.33.66.66.98.97.1.1.11.15.09.29-.14.81-.28,1.62-.42,2.44,0,.05.01.09.06.11.08.03.17.05.28.05.23.01.17.2.17.36,0,.31,0,.62,0,.93,0,.08-.04.12-.13.12-.74,0-1.48,0-2.21,0-.03,0-.06-.01-.08-.03Z"/>
  <path d="m19.85,25.54c.35-.36.71-.7,1.06-1.04.04-.04.09-.04.13,0,.37.37.74.73,1.11,1.09.03.03.05.09.05.18,0,1.28,0,2.56,0,3.85,0,.1-.05.15-.15.15-.71,0-1.42,0-2.13,0-.12,0-.19-.02-.19-.15.01-1.27.01-2.54,0-3.81,0-.1.02-.18.1-.26Z"/>
  <path d="m13.72,29.74c-.05-.03-.06-.08-.06-.14.01-.35.01-.7,0-1.05,0-.11.05-.18.16-.19.11-.01.22-.03.32-.05.06-.01.08-.04.07-.1-.15-.87-.3-1.73-.45-2.6,0-.04.01-.09.06-.14.52-.53.83-.84.93-.93.09-.08.18-.08.26,0,.33.34.67.67,1.01,1,.05.05.07.16.07.24,0,1.28,0,2.56,0,3.84,0,.09-.05.13-.14.13-.73,0-1.45,0-2.17,0-.03,0-.05,0-.08-.02Z"/>
</svg>